STARTFONT 2.1
COMMENT
COMMENT Converted from OpenType font "UbuntuMono-Bold.ttf" by "otf2bdf 3.0".
COMMENT
FONT -FreeType-ubuntu mono-Bold-R-Normal--48-350-100-100-P-192-Windows-cp1252
SIZE 35 100 100
FONTBOUNDINGBOX 25 50 0 -9
STARTPROPERTIES 19
FOUNDRY "FreeType"
FAMILY_NAME "ubuntu mono"
WEIGHT_NAME "Bold"
SLANT "R"
SETWIDTH_NAME "Normal"
ADD_STYLE_NAME ""
PIXEL_SIZE 48
POINT_SIZE 350
RESOLUTION_X 100
RESOLUTION_Y 100
SPACING "P"
AVERAGE_WIDTH 192
CHARSET_REGISTRY "Windows"
CHARSET_ENCODING "cp1252"
FONT_ASCENT 40
FONT_DESCENT 8
COPYRIGHT "Copyright 2011 Canonical Ltd.  Licensed under the Ubuntu Font Licence 1.0"
_OTF_FONTFILE "UbuntuMono-Bold.ttf"
_OTF_PSNAME "UbuntuMono-Bold"
ENDPROPERTIES
CHARS 223
STARTCHAR 0000
ENCODING 157
SWIDTH 514 0
DWIDTH 25 0
BBX 0 0 0 0
BITMAP
ENDCHAR
STARTCHAR 0008
ENCODING 8
SWIDTH 514 0
DWIDTH 25 0
BBX 0 0 0 0
BITMAP
ENDCHAR
STARTCHAR 0009
ENCODING 9
SWIDTH 514 0
DWIDTH 25 0
BBX 0 0 0 0
BITMAP
ENDCHAR
STARTCHAR 000D
ENCODING 13
SWIDTH 514 0
DWIDTH 25 0
BBX 0 0 0 0
BITMAP
ENDCHAR
STARTCHAR 001D
ENCODING 29
SWIDTH 514 0
DWIDTH 25 0
BBX 0 0 0 0
BITMAP
ENDCHAR
STARTCHAR 0020
ENCODING 32
SWIDTH 514 0
DWIDTH 25 0
BBX 0 0 0 0
BITMAP
ENDCHAR
STARTCHAR 0021
ENCODING 33
SWIDTH 514 0
DWIDTH 25 0
BBX 8 31 8 -1
BITMAP
7F
7F
7F
7F
7F
7F
7F
7F
7F
7F
7F
7F
7F
7F
7E
7E
7E
7E
3E
3E
00
00
00
00
3C
7F
FF
FF
FF
7F
3C
ENDCHAR
STARTCHAR 0022
ENCODING 34
SWIDTH 514 0
DWIDTH 25 0
BBX 16 14 4 19
BITMAP
FE3F
FE3F
FE3F
FE3F
FE3F
FE3F
7C3F
7C3F
7C3F
7C1F
7C1F
7C1E
7C1E
381E
ENDCHAR
STARTCHAR 0023
ENCODING 35
SWIDTH 514 0
DWIDTH 25 0
BBX 23 30 1 0
BITMAP
01F0F8
01F0F8
01F0F8
03E1F0
03E1F0
03E1F0
03E1F0
FFFFFE
FFFFFE
FFFFFE
FFFFFE
FFFFFE
07C3E0
0F87C0
0F87C0
0F87C0
0F87C0
FFFFFE
FFFFFE
FFFFFE
FFFFFE
FFFFFE
1F0F80
1F1F00
3E1F00
3E1F00
3E1F00
3E1F00
3E1F00
7E3E00
ENDCHAR
STARTCHAR 0024
ENCODING 36
SWIDTH 514 0
DWIDTH 25 0
BBX 21 39 2 -5
BITMAP
00F800
00F800
00F800
00F800
00F800
03FF80
0FFFF0
1FFFF0
3FFFE0
7FFFE0
7F01E0
7E0020
7E0000
7E0000
7F0000
7F8000
7FF000
3FFC00
1FFF00
0FFFC0
03FFE0
00FFF0
001FF0
0007F8
0003F8
0003F8
0001F8
6003F8
7C07F0
7FFFF0
FFFFE0
FFFFC0
7FFF80
0FFE00
01F800
01F800
01F800
01F800
01F800
ENDCHAR
STARTCHAR 0025
ENCODING 37
SWIDTH 514 0
DWIDTH 25 0
BBX 24 32 0 -1
BITMAP
0F0000
3FC00F
3FC01E
7FE03E
79E03C
79E078
71E0F8
F0F0F0
F0F1E0
71E3E0
79E3C0
79E780
7FEF80
3FCF00
3FDE00
0F3E00
003CF8
0079FC
00FBFE
00F3FE
01E7DF
03E78F
03C78F
07878F
0F878F
0F078F
1E078F
3E07DF
3C03FE
7803FE
F801FC
0000F8
ENDCHAR
STARTCHAR 0026
ENCODING 38
SWIDTH 514 0
DWIDTH 25 0
BBX 22 31 1 0
BITMAP
01F800
07FE00
0FFF00
1FFF80
1FFF80
3F1F80
3F0F80
3E0F80
3E0F80
3F0F80
1F1F00
1FBF00
1FFE00
0FFC00
07F0F0
0FF0F8
1FF8F8
3FFCF8
7EFCF8
7C7EF8
F83FF8
F81FF0
F80FF0
F807E0
FC07E0
FE1FF0
7FFFF8
7FFFF8
3FFFFC
1FFCFC
07F07C
ENDCHAR
STARTCHAR 0027
ENCODING 39
SWIDTH 514 0
DWIDTH 25 0
BBX 7 15 9 18
BITMAP
FE
FE
FE
FE
FE
FC
FC
FC
7C
7C
7C
7C
7C
78
78
ENDCHAR
STARTCHAR 0028
ENCODING 40
SWIDTH 514 0
DWIDTH 25 0
BBX 15 43 5 -8
BITMAP
0008
003C
007C
00FE
01FE
03F8
07F0
0FE0
1FC0
1F80
3F00
3F00
7E00
7E00
7C00
FC00
FC00
FC00
F800
F800
F800
F800
F800
F800
F800
F800
FC00
FC00
FC00
7E00
7E00
3E00
3F00
3F80
1F80
0FC0
0FE0
07F8
03FC
01FE
007C
003C
0008
ENDCHAR
STARTCHAR 0029
ENCODING 41
SWIDTH 514 0
DWIDTH 25 0
BBX 15 43 5 -8
BITMAP
2000
7000
FC00
FE00
FF00
7F80
1FC0
0FE0
07E0
07F0
03F0
01F8
01F8
00FC
00FC
00FC
007C
007E
007E
007E
007E
007E
007E
007E
007E
007E
007E
007C
00FC
00FC
00F8
01F8
01F8
03F0
07F0
0FE0
1FC0
3F80
7F00
FE00
FC00
7800
2000
ENDCHAR
STARTCHAR 002A
ENCODING 42
SWIDTH 514 0
DWIDTH 25 0
BBX 20 20 2 10
BITMAP
01F800
01F800
00F800
00F800
30F860
38F9E0
7EF3E0
7F7FF0
7FFFF0
FFFFF0
1FFFC0
01F800
03FE00
07DF00
0FDF80
1F9FC0
3F8FC0
0F8F80
070700
020400
ENDCHAR
STARTCHAR 002B
ENCODING 43
SWIDTH 514 0
DWIDTH 25 0
BBX 21 23 2 0
BITMAP
00F800
00F800
00F800
00F800
00F800
00F800
00F800
00F800
00F800
FFFFF8
FFFFF8
FFFFF8
FFFFF8
FFFFF8
00F800
00F800
00F800
00F800
00F800
00F800
00F800
00F800
00F800
ENDCHAR
STARTCHAR 002C
ENCODING 44
SWIDTH 514 0
DWIDTH 25 0
BBX 11 17 6 -9
BITMAP
0780
1FC0
1FC0
3FE0
3FE0
3FE0
1FE0
1FE0
0FE0
03C0
07C0
0FC0
3F80
FF00
FE00
7C00
6000
ENDCHAR
STARTCHAR 002D
ENCODING 45
SWIDTH 514 0
DWIDTH 25 0
BBX 13 6 6 9
BITMAP
FFF8
FFF8
FFF8
FFF8
FFF8
FFF8
ENDCHAR
STARTCHAR 002E
ENCODING 46
SWIDTH 514 0
DWIDTH 25 0
BBX 9 9 8 -1
BITMAP
3C00
7F00
FF00
FF80
FF80
FF80
FF00
7F00
3C00
ENDCHAR
STARTCHAR 002F
ENCODING 47
SWIDTH 514 0
DWIDTH 25 0
BBX 20 42 2 -8
BITMAP
0003F0
0003F0
0007E0
0007E0
0007E0
000FC0
000FC0
000FC0
001F80
001F80
001F80
003F00
003F00
003F00
007F00
007E00
007E00
00FE00
00FC00
00FC00
01FC00
01F800
01F800
03F800
03F000
03F000
07F000
07E000
07E000
0FE000
0FC000
0FC000
1FC000
1F8000
1F8000
3F8000
3F0000
3F0000
7F0000
7E0000
7E0000
FE0000
ENDCHAR
STARTCHAR 0030
ENCODING 48
SWIDTH 514 0
DWIDTH 25 0
BBX 21 32 2 -1
BITMAP
01FC00
07FF00
0FFF80
1FFFC0
3FFFC0
3F0FE0
7E07E0
7E03F0
FC03F0
FC01F0
FC01F0
F801F8
F871F8
F8F9F8
F8F9F8
F8F9F8
F8F9F8
F8F9F8
F871F8
F801F8
F801F8
FC01F0
FC01F0
FC03F0
7E03F0
7E07E0
3F0FE0
3FFFC0
1FFFC0
0FFF80
07FF00
01FC00
ENDCHAR
STARTCHAR 0031
ENCODING 49
SWIDTH 514 0
DWIDTH 25 0
BBX 20 30 2 0
BITMAP
003C00
007C00
01FC00
03FC00
0FFC00
3FFC00
FFFC00
7FFC00
7FFC00
3CFC00
30FC00
00FC00
00FC00
00FC00
00FC00
00FC00
00FC00
00FC00
00FC00
00FC00
00FC00
00FC00
00FC00
00FC00
00FC00
3FFFF0
3FFFF0
3FFFF0
3FFFF0
3FFFF0
ENDCHAR
STARTCHAR 0032
ENCODING 50
SWIDTH 514 0
DWIDTH 25 0
BBX 20 31 3 0
BITMAP
07F000
3FFC00
7FFF00
FFFF80
FFFF80
FC3FC0
701FC0
200FC0
000FC0
000FC0
000FC0
001FC0
003F80
003F80
007F00
00FE00
01FE00
03FC00
07F800
0FE000
1FC000
3F8000
7F8000
7F0000
FE0000
FE0000
FFFFF0
FFFFF0
FFFFF0
FFFFF0
FFFFF0
ENDCHAR
STARTCHAR 0033
ENCODING 51
SWIDTH 514 0
DWIDTH 25 0
BBX 20 32 2 -1
BITMAP
07F800
1FFE00
7FFF80
7FFF80
7FFFC0
3C1FC0
200FE0
0007E0
0007E0
0007E0
000FE0
000FC0
003FC0
07FF80
07FF00
07FF00
07FFC0
07FFE0
001FE0
0007F0
0003F0
0003F0
0003F0
0003F0
0007F0
0007F0
701FE0
7FFFE0
FFFFC0
FFFF80
FFFF00
0FF800
ENDCHAR
STARTCHAR 0034
ENCODING 52
SWIDTH 514 0
DWIDTH 25 0
BBX 22 30 1 0
BITMAP
0007E0
000FE0
001FE0
003FE0
003FE0
007FE0
00FFE0
01FFE0
01F7E0
03E7E0
07E7E0
0FC7E0
0F87E0
1F87E0
1F07E0
3E07E0
7E07E0
7C07E0
FFFFFC
FFFFFC
FFFFFC
FFFFFC
FFFFFC
0007E0
0007E0
0007E0
0007E0
0007E0
0007E0
0007E0
ENDCHAR
STARTCHAR 0035
ENCODING 53
SWIDTH 514 0
DWIDTH 25 0
BBX 20 31 2 -1
BITMAP
1FFFE0
1FFFE0
1FFFE0
1FFFE0
1FFFE0
1F0000
1F0000
1F0000
1F0000
1F0000
1F0000
1FF000
3FFE00
3FFF00
3FFF80
3FFFC0
00FFE0
001FE0
0007F0
0007F0
0003F0
0003F0
0003F0
0007F0
0007E0
701FE0
FFFFC0
FFFFC0
FFFF80
FFFE00
1FF000
ENDCHAR
STARTCHAR 0036
ENCODING 54
SWIDTH 514 0
DWIDTH 25 0
BBX 20 31 2 -1
BITMAP
0003E0
003FE0
00FFE0
01FFE0
07FFE0
0FFE00
0FF000
1FC000
3F8000
3F0000
7F0000
7EFC00
7FFF00
7FFFC0
FFFFE0
FFFFE0
FE0FF0
FC07F0
FC03F0
FC03F0
FC03F0
FC03F0
7E03F0
7E03F0
7F07F0
7F8FE0
3FFFE0
1FFFC0
1FFF80
07FF00
01FC00
ENDCHAR
STARTCHAR 0037
ENCODING 55
SWIDTH 514 0
DWIDTH 25 0
BBX 20 30 2 0
BITMAP
FFFFF0
FFFFF0
FFFFF0
FFFFF0
FFFFF0
0007F0
000FE0
000FC0
001FC0
001F80
003F80
003F00
007F00
007E00
00FE00
00FC00
00FC00
01F800
01F800
01F800
03F000
03F000
03F000
07F000
07E000
07E000
07E000
07E000
07E000
0FE000
ENDCHAR
STARTCHAR 0038
ENCODING 56
SWIDTH 514 0
DWIDTH 25 0
BBX 21 32 2 -1
BITMAP
01FC00
07FF00
1FFFC0
3FFFC0
3FFFE0
7F0FE0
7E03F0
7C03F0
7C03F0
7C03F0
7E03F0
7E07E0
7F87E0
3FEFC0
1FFF80
0FFF00
0FFF80
3FFFC0
3F3FE0
7E0FF0
FC07F0
FC03F0
FC01F8
FC01F8
FC01F8
FC03F0
FF07F0
7FFFF0
7FFFE0
3FFFC0
0FFF80
03FC00
ENDCHAR
STARTCHAR 0039
ENCODING 57
SWIDTH 514 0
DWIDTH 25 0
BBX 20 31 2 0
BITMAP
01F800
07FF00
1FFF80
1FFFC0
3FFFC0
7F0FE0
7E07E0
7E03F0
FC03F0
FC03F0
FC03F0
FC03F0
FC03F0
7E03F0
7F07F0
7FFFF0
3FFFF0
1FFFF0
0FFFF0
01F7E0
0007E0
000FE0
001FC0
003FC0
007F80
03FF00
3FFE00
3FFC00
3FF800
3FE000
3E0000
ENDCHAR
STARTCHAR 003A
ENCODING 58
SWIDTH 514 0
DWIDTH 25 0
BBX 9 24 8 -1
BITMAP
3C00
7F00
FF00
FF80
FF80
FF80
FF00
7F00
3C00
0000
0000
0000
0000
0000
0000
3C00
7F00
FF00
FF80
FF80
FF80
FF00
7F00
3C00
ENDCHAR
STARTCHAR 003B
ENCODING 59
SWIDTH 514 0
DWIDTH 25 0
BBX 11 32 6 -9
BITMAP
0F00
1FC0
3FC0
3FE0
3FE0
3FE0
3FC0
1FC0
0F00
0000
0000
0000
0000
0000
0000
0F00
1F80
3FC0
3FC0
3FE0
3FE0
3FE0
1FC0
0FC0
03C0
07C0
0F80
3F00
FF00
FE00
F800
E000
ENDCHAR
STARTCHAR 003C
ENCODING 60
SWIDTH 514 0
DWIDTH 25 0
BBX 20 21 2 2
BITMAP
000020
0001E0
0007F0
001FF0
00FFF0
03FFF0
1FFF80
7FFE00
FFF000
FFC000
FE0000
FFC000
FFF000
7FFE00
1FFF80
03FFF0
00FFF0
001FF0
0007F0
0001F0
000020
ENDCHAR
STARTCHAR 003D
ENCODING 61
SWIDTH 514 0
DWIDTH 25 0
BBX 21 15 2 5
BITMAP
FFFFF8
FFFFF8
FFFFF8
FFFFF8
FFFFF8
000000
000000
000000
000000
000000
FFFFF8
FFFFF8
FFFFF8
FFFFF8
FFFFF8
ENDCHAR
STARTCHAR 003E
ENCODING 62
SWIDTH 514 0
DWIDTH 25 0
BBX 20 21 2 2
BITMAP
600000
780000
7F0000
7FC000
FFF800
7FFE00
1FFF80
03FFF0
00FFF0
001FF0
0003F0
001FF0
007FF0
03FFF0
1FFF80
7FFE00
FFF000
7FC000
7F0000
780000
600000
ENDCHAR
STARTCHAR 003F
ENCODING 63
SWIDTH 514 0
DWIDTH 25 0
BBX 18 32 3 -1
BITMAP
07F800
3FFE00
FFFF00
7FFF80
7FFFC0
383FC0
201FC0
000FC0
000FC0
000FC0
001FC0
003F80
007F80
00FF00
01FE00
03FC00
03F800
03F000
07E000
07E000
07E000
000000
000000
000000
000000
03C000
07F000
0FF000
0FF000
0FF000
07F000
03C000
ENDCHAR
STARTCHAR 0040
ENCODING 64
SWIDTH 514 0
DWIDTH 25 0
BBX 22 38 1 -7
BITMAP
007F00
03FFC0
07FFE0
0FFFF0
1FC3F0
1F00F8
3E00F8
3C007C
7C007C
7C0FFC
783FFC
787FFC
F8FFFC
F8FFFC
F8FC7C
F1F87C
F1F87C
F1F07C
F1F07C
F1F07C
F1F07C
F1F87C
F1F87C
F8FC7C
F8FFFC
F87FFC
787FFC
781FFC
7C07F8
3C0000
3E0000
3F0000
1F8000
0FE018
07FFF8
03FFF8
00FFF8
003FF0
ENDCHAR
STARTCHAR 0041
ENCODING 65
SWIDTH 514 0
DWIDTH 25 0
BBX 23 30 1 0
BITMAP
00FE00
00FE00
01FE00
01FF00
01FF00
03FF00
03FF80
03EF80
07CF80
07CFC0
07C7C0
0FC7C0
0F87C0
0F87E0
0F87E0
1F83E0
1F83F0
1F03F0
3FFFF0
3FFFF0
3FFFF8
3FFFF8
7FFFF8
7E01F8
7E01FC
7E00FC
FC00FC
FC00FC
FC00FE
FC00FE
ENDCHAR
STARTCHAR 0042
ENCODING 66
SWIDTH 514 0
DWIDTH 25 0
BBX 20 32 3 -1
BITMAP
7FF000
FFFE00
FFFF00
FFFF80
FFFFC0
FC1FC0
FC0FC0
FC07E0
FC07E0
FC07C0
FC0FC0
FC0FC0
FC1F80
FFFF80
FFFE00
FFFF00
FFFF80
FFFFC0
FC0FE0
FC07E0
FC03F0
FC03F0
FC03F0
FC03F0
FC03F0
FC07F0
FC0FE0
FFFFE0
FFFFC0
FFFF80
FFFF00
3FF800
ENDCHAR
STARTCHAR 0043
ENCODING 67
SWIDTH 514 0
DWIDTH 25 0
BBX 22 32 1 -1
BITMAP
003FC0
00FFF8
03FFFC
07FFF8
0FFFF8
1FE078
1FC008
3F8000
3F0000
7F0000
7E0000
7E0000
7E0000
FE0000
FC0000
FC0000
FC0000
FC0000
FE0000
7E0000
7E0000
7E0000
7E0000
7F0000
3F8000
3F8008
1FE038
1FFFF8
0FFFFC
07FFFC
01FFF8
007FC0
ENDCHAR
STARTCHAR 0044
ENCODING 68
SWIDTH 514 0
DWIDTH 25 0
BBX 20 31 3 -1
BITMAP
7FE000
FFFC00
FFFE00
FFFF00
FFFF80
FC3FC0
FC1FC0
FC0FE0
FC07E0
FC07F0
FC03F0
FC03F0
FC03F0
FC03F0
FC03F0
FC03F0
FC03F0
FC03F0
FC03F0
FC03F0
FC07F0
FC07E0
FC07E0
FC0FE0
FC1FC0
FC3FC0
FFFF80
FFFF00
FFFE00
FFF800
7FC000
ENDCHAR
STARTCHAR 0045
ENCODING 69
SWIDTH 514 0
DWIDTH 25 0
BBX 20 30 3 0
BITMAP
FFFFC0
FFFFC0
FFFFC0
FFFFC0
FFFFC0
FC0000
FC0000
FC0000
FC0000
FC0000
FC0000
FC0000
FFFF80
FFFF80
FFFF80
FFFF80
FFFF80
FC0000
FC0000
FC0000
FC0000
FC0000
FC0000
FC0000
FC0000
FFFFF0
FFFFF0
FFFFF0
FFFFF0
FFFFF0
ENDCHAR
STARTCHAR 0046
ENCODING 70
SWIDTH 514 0
DWIDTH 25 0
BBX 19 30 3 0
BITMAP
FFFFE0
FFFFE0
FFFFE0
FFFFE0
FFFFE0
FC0000
FC0000
FC0000
FC0000
FC0000
FC0000
FC0000
FFFF80
FFFF80
FFFF80
FFFF80
FFFF80
FC0000
FC0000
FC0000
FC0000
FC0000
FC0000
FC0000
FC0000
FC0000
FC0000
FC0000
FC0000
FC0000
ENDCHAR
STARTCHAR 0047
ENCODING 71
SWIDTH 514 0
DWIDTH 25 0
BBX 22 32 1 -1
BITMAP
003FF0
01FFFC
03FFF8
07FFF8
0FFFF8
1FE078
3FC010
3F8000
3F0000
7E0000
7E0000
7E0000
7E0000
FE0000
FC0000
FC00FC
FC00FC
FC00FC
FE00FC
7E00FC
7E00FC
7E00FC
7E00FC
7F00FC
3F00FC
3F80FC
1FE0FC
1FFFFC
0FFFFC
07FFFC
01FFFC
007FE0
ENDCHAR
STARTCHAR 0048
ENCODING 72
SWIDTH 514 0
DWIDTH 25 0
BBX 20 30 2 0
BITMAP
FC03F0
FC03F0
FC03F0
FC03F0
FC03F0
FC03F0
FC03F0
FC03F0
FC03F0
FC03F0
FC03F0
FC03F0
FFFFF0
FFFFF0
FFFFF0
FFFFF0
FFFFF0
FC03F0
FC03F0
FC03F0
FC03F0
FC03F0
FC03F0
FC03F0
FC03F0
FC03F0
FC03F0
FC03F0
FC03F0
FC03F0
ENDCHAR
STARTCHAR 0049
ENCODING 73
SWIDTH 514 0
DWIDTH 25 0
BBX 19 30 3 0
BITMAP
FFFFE0
FFFFE0
FFFFE0
FFFFE0
FFFFE0
03F000
03F000
03F000
03F000
03F000
03F000
03F000
03F000
03F000
03F000
03F000
03F000
03F000
03F000
03F000
03F000
03F000
03F000
03F000
03F000
FFFFE0
FFFFE0
FFFFE0
FFFFE0
FFFFE0
ENDCHAR
STARTCHAR 004A
ENCODING 74
SWIDTH 514 0
DWIDTH 25 0
BBX 19 31 2 -1
BITMAP
1FFFE0
1FFFE0
1FFFE0
1FFFE0
1FFFE0
0007E0
0007E0
0007E0
0007E0
0007E0
0007E0
0007E0
0007E0
0007E0
0007E0
0007E0
0007E0
0007E0
0007E0
0007E0
0007E0
0007E0
0007E0
0007E0
200FE0
3C1FE0
7FFFC0
7FFF80
FFFF00
3FFE00
0FF800
ENDCHAR
STARTCHAR 004B
ENCODING 75
SWIDTH 514 0
DWIDTH 25 0
BBX 22 30 2 0
BITMAP
FC03F8
FC07F0
FC07F0
FC0FE0
FC0FC0
FC1FC0
FC3F80
FC3F00
FC7F00
FCFE00
FCFC00
FDF800
FFF800
FFF000
FFF000
FFF800
FFFC00
FDFE00
FCFF00
FC7F00
FC3F80
FC1FC0
FC1FC0
FC0FE0
FC07F0
FC07F0
FC03F8
FC03F8
FC01F8
FC01FC
ENDCHAR
STARTCHAR 004C
ENCODING 76
SWIDTH 514 0
DWIDTH 25 0
BBX 20 30 3 0
BITMAP
FE0000
FE0000
FE0000
FE0000
FE0000
FE0000
FE0000
FE0000
FE0000
FE0000
FE0000
FE0000
FE0000
FE0000
FE0000
FE0000
FE0000
FE0000
FE0000
FE0000
FE0000
FE0000
FE0000
FE0000
FE0000
FFFFF0
FFFFF0
FFFFF0
FFFFF0
FFFFF0
ENDCHAR
STARTCHAR 004D
ENCODING 77
SWIDTH 514 0
DWIDTH 25 0
BBX 22 30 1 0
BITMAP
3E01F8
3E01F8
3F01F8
3F03F8
7F03F8
7F83F8
7F87F8
7B87F8
7BC7F8
7BCF78
79CF78
79EF7C
79FE7C
79FE7C
7CFE7C
7CFC7C
7CFC7C
7C7C7C
7C7C7C
7C007C
FC007C
FC007C
FC007C
FC007C
FC007C
FC007C
FC007C
FC007C
FC007C
FC007C
ENDCHAR
STARTCHAR 004E
ENCODING 78
SWIDTH 514 0
DWIDTH 25 0
BBX 20 30 2 0
BITMAP
F801F0
FC01F0
FE01F0
FE01F0
FF01F0
FF01F0
FF81F0
FF81F0
FFC1F0
FFC1F0
FFE1F0
FFF1F0
FDF1F0
FCF9F0
FCF9F0
FC79F0
FC7DF0
FC3DF0
FC3FF0
FC1FF0
FC1FF0
FC0FF0
FC0FF0
FC07F0
FC07F0
FC07F0
FC03F0
FC03F0
FC01F0
FC01F0
ENDCHAR
STARTCHAR 004F
ENCODING 79
SWIDTH 514 0
DWIDTH 25 0
BBX 22 32 1 -1
BITMAP
00FE00
03FF80
07FFC0
0FFFE0
1FFFF0
3F87F0
3F03F8
7F01F8
7E01F8
7E00FC
7E00FC
7E00FC
FE00FC
FC00FC
FC00FC
FC00FC
FC00FC
FC00FC
FC00FC
FE00FC
7E00FC
7E00FC
7E00FC
7E01F8
7F01F8
3F03F8
3F87F0
1FFFF0
0FFFE0
0FFFC0
03FF80
00FE00
ENDCHAR
STARTCHAR 0050
ENCODING 80
SWIDTH 514 0
DWIDTH 25 0
BBX 20 31 3 0
BITMAP
3FF800
FFFE00
FFFF80
FFFFC0
FFFFE0
FC1FE0
FC07F0
FC07F0
FC03F0
FC03F0
FC03F0
FC03F0
FC03F0
FC07F0
FC07F0
FE1FE0
FFFFE0
FFFFC0
FFFF80
FFFE00
FFF000
FC0000
FC0000
FC0000
FC0000
FC0000
FC0000
FC0000
FC0000
FC0000
FC0000
ENDCHAR
STARTCHAR 0051
ENCODING 81
SWIDTH 514 0
DWIDTH 25 0
BBX 22 40 1 -9
BITMAP
00FE00
03FF80
07FFC0
0FFFE0
1FFFF0
3F87F0
3F03F8
7F01F8
7E01F8
7E00FC
7E00FC
7E00FC
FE00FC
FC00FC
FC00FC
FC00FC
FC00FC
FC00FC
FC00FC
FE00FC
7E00FC
7E00FC
7E00FC
7E01F8
7F01F8
3F03F8
3F87F0
1FFFF0
1FFFE0
0FFFC0
07FF80
01FE00
007C00
007E00
007FE0
003FFC
001FFC
000FF8
0003F8
000038
ENDCHAR
STARTCHAR 0052
ENCODING 82
SWIDTH 514 0
DWIDTH 25 0
BBX 21 31 3 0
BITMAP
3FF000
FFFC00
FFFF00
FFFF80
FFFFC0
FC3FC0
FC0FC0
FC0FE0
FC07E0
FC07E0
FC07E0
FC07E0
FC0FE0
FC0FE0
FC3FC0
FFFFC0
FFFF80
FFFF00
FFFC00
FFFE00
FC7F00
FC3F00
FC3F80
FC1F80
FC1FC0
FC0FC0
FC07E0
FC07E0
FC03F0
FC03F0
FC03F8
ENDCHAR
STARTCHAR 0053
ENCODING 83
SWIDTH 514 0
DWIDTH 25 0
BBX 21 32 2 -1
BITMAP
01FE00
0FFFC0
1FFFE0
3FFFE0
7FFFC0
7F03C0
7E0040
FE0000
FC0000
FE0000
FE0000
7F0000
7FC000
3FF800
3FFE00
1FFF80
07FFC0
01FFE0
003FF0
000FF0
0007F0
0003F0
0003F8
0003F8
0003F0
2003F0
780FF0
7FFFF0
FFFFE0
FFFFC0
7FFF00
0FFC00
ENDCHAR
STARTCHAR 0054
ENCODING 84
SWIDTH 514 0
DWIDTH 25 0
BBX 22 30 1 0
BITMAP
FFFFFC
FFFFFC
FFFFFC
FFFFFC
FFFFFC
00FC00
00FC00
00FC00
00FC00
00FC00
00FC00
00FC00
00FC00
00FC00
00FC00
00FC00
00FC00
00FC00
00FC00
00FC00
00FC00
00FC00
00FC00
00FC00
00FC00
00FC00
00FC00
00FC00
00FC00
00FC00
ENDCHAR
STARTCHAR 0055
ENCODING 85
SWIDTH 514 0
DWIDTH 25 0
BBX 21 31 2 -1
BITMAP
FC01F8
FC01F8
FC01F8
FC01F8
FC01F8
FC01F8
FC01F8
FC01F8
FC01F8
FC01F8
FC01F8
FC01F8
FC01F8
FC01F8
FC01F8
FC01F8
FC01F8
FC01F8
FC01F8
FC01F8
FC03F8
FC03F8
FC03F0
FC03F0
FE03F0
7F07F0
7FFFE0
3FFFE0
1FFFC0
0FFF00
03FC00
ENDCHAR
STARTCHAR 0056
ENCODING 86
SWIDTH 514 0
DWIDTH 25 0
BBX 23 30 1 0
BITMAP
FC00FE
FC00FE
FC00FC
FE00FC
7E00FC
7E00FC
7E01F8
7E01F8
3E01F8
3F01F8
3F01F0
3F03F0
1F03F0
1F83F0
1F83E0
0F87E0
0F87E0
0FC7C0
0FC7C0
07C7C0
07CFC0
07EF80
03EF80
03FF80
03FF00
01FF00
01FF00
01FE00
00FE00
00FE00
ENDCHAR
STARTCHAR 0057
ENCODING 87
SWIDTH 514 0
DWIDTH 25 0
BBX 22 30 1 0
BITMAP
FC007C
FC007C
FC007C
FC007C
FC007C
FC007C
FC007C
FC007C
FC007C
FC007C
FC007C
7C7C7C
7C7C7C
78FC7C
78FE7C
78FE7C
79FE7C
79EE7C
79EF7C
7BCF7C
7BC778
7BC7F8
7B87F8
7F83F8
7F83F8
7F03F8
3F03F8
3F01F8
3E01F8
3E01F8
ENDCHAR
STARTCHAR 0058
ENCODING 88
SWIDTH 514 0
DWIDTH 25 0
BBX 23 30 1 0
BITMAP
FE00FC
7E00FC
7F01F8
3F01F8
1F83F0
1F87E0
0FC7E0
0FCFC0
07EFC0
07FF80
03FF80
03FF00
01FF00
00FE00
00FE00
01FF00
01FF00
03FF80
03FF80
07EFC0
0FCFE0
0FC7E0
1F87F0
1F83F0
3F03F8
3F01F8
7F01F8
7E01FC
FE00FC
FC00FE
ENDCHAR
STARTCHAR 0059
ENCODING 89
SWIDTH 514 0
DWIDTH 25 0
BBX 23 30 1 0
BITMAP
FC00FE
FE00FC
7E00FC
7E01FC
7F01F8
3F01F8
3F03F0
1F83F0
1F83E0
0FC7E0
0FC7E0
0FCFC0
07EFC0
07EF80
03FF80
01FF00
01FE00
00FE00
00FC00
00FC00
00FC00
00FC00
00FC00
00FC00
00FC00
00FC00
00FC00
00FC00
00FC00
00FC00
ENDCHAR
STARTCHAR 005A
ENCODING 90
SWIDTH 514 0
DWIDTH 25 0
BBX 20 30 2 0
BITMAP
7FFFF0
7FFFF0
7FFFF0
7FFFF0
7FFFF0
000FE0
000FC0
001FC0
003F80
003F00
007F00
007E00
00FC00
01FC00
01F800
03F800
03F000
07E000
07E000
0FC000
1FC000
1F8000
3F8000
3F0000
7E0000
7FFFF0
FFFFF0
FFFFF0
FFFFF0
FFFFF0
ENDCHAR
STARTCHAR 005B
ENCODING 91
SWIDTH 514 0
DWIDTH 25 0
BBX 13 42 6 -8
BITMAP
FFF8
FFF8
FFF8
FFF8
FFF8
F800
F800
F800
F800
F800
F800
F800
F800
F800
F800
F800
F800
F800
F800
F800
F800
F800
F800
F800
F800
F800
F800
F800
F800
F800
F800
F800
F800
F800
F800
F800
F800
FFF8
FFF8
FFF8
FFF8
FFF8
ENDCHAR
STARTCHAR 005C
ENCODING 92
SWIDTH 514 0
DWIDTH 25 0
BBX 19 42 3 -8
BITMAP
FC0000
FC0000
FC0000
7E0000
7E0000
7E0000
3F0000
3F0000
3F0000
3F8000
1F8000
1F8000
1FC000
0FC000
0FC000
0FE000
07E000
07E000
07F000
03F000
03F000
03F800
01F800
01F800
01FC00
00FC00
00FC00
00FE00
007E00
007E00
007F00
003F00
003F00
003F80
001F80
001F80
001FC0
000FC0
000FC0
000FC0
0007E0
0007E0
ENDCHAR
STARTCHAR 005D
ENCODING 93
SWIDTH 514 0
DWIDTH 25 0
BBX 14 42 5 -8
BITMAP
FFFC
FFFC
FFFC
FFFC
FFFC
00FC
00FC
00FC
00FC
00FC
00FC
00FC
00FC
00FC
00FC
00FC
00FC
00FC
00FC
00FC
00FC
00FC
00FC
00FC
00FC
00FC
00FC
00FC
00FC
00FC
00FC
00FC
00FC
00FC
00FC
00FC
00FC
FFFC
FFFC
FFFC
FFFC
FFFC
ENDCHAR
STARTCHAR 005E
ENCODING 94
SWIDTH 514 0
DWIDTH 25 0
BBX 23 16 1 14
BITMAP
00FC00
00FE00
01FF00
03FF00
03FF80
07EFC0
0FEFC0
0FC7E0
1F87F0
1F83F0
3F01F8
7F01FC
7E00FC
FE00FE
3C0078
0C0060
ENDCHAR
STARTCHAR 005F
ENCODING 95
SWIDTH 514 0
DWIDTH 25 0
BBX 24 5 0 -8
BITMAP
FFFFFF
FFFFFF
FFFFFF
FFFFFF
FFFFFF
ENDCHAR
STARTCHAR 0060
ENCODING 96
SWIDTH 514 0
DWIDTH 25 0
BBX 10 9 8 25
BITMAP
2000
7800
7C00
FE00
FF80
7FC0
1FC0
0780
0100
ENDCHAR
STARTCHAR 0061
ENCODING 97
SWIDTH 514 0
DWIDTH 25 0
BBX 20 25 2 -1
BITMAP
0FFC00
3FFF00
1FFF80
1FFFC0
1FFFE0
100FE0
0007E0
0007E0
0003F0
0003F0
03FFF0
1FFFF0
3FFFF0
7FFFF0
7FFFF0
FE03F0
FC03F0
FC03F0
FC03F0
FE03F0
7FFFF0
7FFFF0
3FFFF0
1FFFF0
07FF00
ENDCHAR
STARTCHAR 0062
ENCODING 98
SWIDTH 514 0
DWIDTH 25 0
BBX 20 36 3 -1
BITMAP
1C0000
FC0000
FC0000
FC0000
FC0000
FC0000
FC0000
FC0000
FC0000
FC0000
FC0000
FDFC00
FFFF00
FFFF80
FFFFC0
FFFFC0
FE0FE0
FC07E0
FC07E0
FC07F0
FC03F0
FC03F0
FC03F0
FC03F0
FC03F0
FC03F0
FC03F0
FC07F0
FC07E0
FC07E0
FC1FE0
FFFFC0
FFFF80
FFFF00
FFFE00
1FF800
ENDCHAR
STARTCHAR 0063
ENCODING 99
SWIDTH 514 0
DWIDTH 25 0
BBX 21 25 2 -1
BITMAP
007FC0
03FFF0
07FFF0
0FFFF0
1FFFF0
3FE020
7F8000
7F0000
7E0000
FE0000
FC0000
FC0000
FC0000
FC0000
FC0000
FE0000
7E0000
7F0000
7F8000
3FC010
3FFFF0
1FFFF0
07FFF8
03FFF8
007FE0
ENDCHAR
STARTCHAR 0064
ENCODING 100
SWIDTH 514 0
DWIDTH 25 0
BBX 20 36 1 -1
BITMAP
000070
0003F0
0003F0
0003F0
0003F0
0003F0
0003F0
0003F0
0003F0
0003F0
0003F0
03FBF0
07FFF0
1FFFF0
1FFFF0
3FFFF0
3F87F0
7F03F0
7E03F0
7E03F0
7E03F0
FE03F0
FE03F0
FE03F0
FE03F0
FE03F0
7E03F0
7E03F0
7E03F0
7F03F0
3F83F0
3FFFF0
1FFFF0
0FFFF0
07FFF0
01FF80
ENDCHAR
STARTCHAR 0065
ENCODING 101
SWIDTH 514 0
DWIDTH 25 0
BBX 21 25 2 -1
BITMAP
01FC00
07FF00
0FFF80
1FFFC0
3FFFE0
7F07F0
7E03F0
FC03F0
FC01F0
FC01F8
FFFFF8
FFFFF8
FFFFF8
FFFFF8
FFFFF8
FC0000
FC0000
FC0000
7E0000
7F8060
3FFFE0
1FFFE0
0FFFE0
07FFE0
00FF80
ENDCHAR
STARTCHAR 0066
ENCODING 102
SWIDTH 514 0
DWIDTH 25 0
BBX 22 35 2 0
BITMAP
001FE0
007FFC
00FFFC
01FFFC
03FFF8
03F818
07F000
07E000
07E000
07E000
07E000
07E000
FFFFF0
FFFFF0
FFFFF0
FFFFF0
FFFFF0
07E000
07E000
07E000
07E000
07E000
07E000
07E000
07E000
07E000
07E000
07E000
07E000
07E000
07E000
07E000
07E000
07E000
07E000
ENDCHAR
STARTCHAR 0067
ENCODING 103
SWIDTH 514 0
DWIDTH 25 0
BBX 19 33 2 -9
BITMAP
01FF00
07FFE0
1FFFE0
3FFFE0
7FFFE0
7F87E0
FE07E0
FE07E0
FC07E0
FC07E0
FC07E0
FC07E0
FC07E0
FC07E0
FC07E0
FC07E0
FE07E0
7F07E0
7FFFE0
3FFFE0
3FFFE0
1FFFE0
07F7E0
0007E0
0007E0
0007E0
000FE0
601FC0
7FFFC0
7FFF80
FFFF00
FFFE00
1FF000
ENDCHAR
STARTCHAR 0068
ENCODING 104
SWIDTH 514 0
DWIDTH 25 0
BBX 19 35 3 0
BITMAP
1C0000
FC0000
FC0000
FC0000
FC0000
FC0000
FC0000
FC0000
FC0000
FC0000
FC0000
FDF800
FFFE00
FFFF00
FFFF80
FFFFC0
FC1FC0
FC0FC0
FC0FC0
FC0FE0
FC07E0
FC07E0
FC07E0
FC07E0
FC07E0
FC07E0
FC07E0
FC07E0
FC07E0
FC07E0
FC07E0
FC07E0
FC07E0
FC07E0
FC07E0
ENDCHAR
STARTCHAR 0069
ENCODING 105
SWIDTH 514 0
DWIDTH 25 0
BBX 21 35 2 -1
BITMAP
03C000
07E000
07F000
0FF000
0FF000
07F000
07E000
03C000
000000
000000
000000
FFF000
FFF000
FFF000
FFF000
FFF000
03F000
03F000
03F000
03F000
03F000
03F000
03F000
03F000
03F000
03F000
03F000
03F000
03F800
01FC10
01FFF0
01FFF8
00FFF8
007FF8
001FC0
ENDCHAR
STARTCHAR 006A
ENCODING 106
SWIDTH 514 0
DWIDTH 25 0
BBX 17 43 3 -9
BITMAP
003C00
007E00
00FF00
00FF00
00FF00
00FF00
007E00
003C00
000000
000000
000000
7FFF80
7FFF80
7FFF80
7FFF80
7FFF80
001F80
001F80
001F80
001F80
001F80
001F80
001F80
001F80
001F80
001F80
001F80
001F80
001F80
001F80
001F80
001F80
001F80
001F80
001F80
003F00
403F00
787F00
FFFF00
FFFE00
FFFC00
7FF800
0FE000
ENDCHAR
STARTCHAR 006B
ENCODING 107
SWIDTH 514 0
DWIDTH 25 0
BBX 21 35 3 0
BITMAP
1C0000
FC0000
FC0000
FC0000
FC0000
FC0000
FC0000
FC0000
FC0000
FC0000
FC0000
FC0000
FC0FF0
FC0FE0
FC1FC0
FC3F80
FC3F00
FC7E00
FCFC00
FDFC00
FDF800
FFF000
FFE000
FFF000
FDF800
FDFC00
FCFE00
FC7F00
FC3F80
FC1F80
FC1FC0
FC0FE0
FC07E0
FC07F0
FC03F8
ENDCHAR
STARTCHAR 006C
ENCODING 108
SWIDTH 514 0
DWIDTH 25 0
BBX 21 35 2 -1
BITMAP
FFF000
FFF000
FFF000
FFF000
FFF000
03F000
03F000
03F000
03F000
03F000
03F000
03F000
03F000
03F000
03F000
03F000
03F000
03F000
03F000
03F000
03F000
03F000
03F000
03F000
03F000
03F000
03F000
03F000
03F800
01FC10
01FFF0
01FFF8
00FFF8
007FF8
001FC0
ENDCHAR
STARTCHAR 006D
ENCODING 109
SWIDTH 514 0
DWIDTH 25 0
BBX 22 24 1 0
BITMAP
1FC7E0
FFFFF0
FFFFF8
FFFFF8
FFFFFC
F8F8FC
F8787C
F87C7C
F87C7C
F87C7C
F87C7C
F87C7C
F87C7C
F87C7C
F87C7C
F8007C
F8007C
F8007C
F8007C
F8007C
F8007C
F8007C
F8007C
F8007C
ENDCHAR
STARTCHAR 006E
ENCODING 110
SWIDTH 514 0
DWIDTH 25 0
BBX 19 24 3 0
BITMAP
0FF800
FFFE00
FFFF00
FFFF80
FFFFC0
FC1FC0
FC0FC0
FC0FC0
FC0FE0
FC07E0
FC07E0
FC07E0
FC07E0
FC07E0
FC07E0
FC07E0
FC07E0
FC07E0
FC07E0
FC07E0
FC07E0
FC07E0
FC07E0
FC07E0
ENDCHAR
STARTCHAR 006F
ENCODING 111
SWIDTH 514 0
DWIDTH 25 0
BBX 22 25 1 -1
BITMAP
00FE00
03FF80
0FFFC0
1FFFE0
1FFFF0
3F87F8
3F03F8
7F01F8
7E01FC
7E00FC
FE00FC
FE00FC
FE00FC
FE00FC
7E00FC
7E00FC
7E01FC
7E01F8
3F03F8
3F87F0
1FFFF0
1FFFE0
0FFFC0
03FF80
00FE00
ENDCHAR
STARTCHAR 0070
ENCODING 112
SWIDTH 514 0
DWIDTH 25 0
BBX 20 32 3 -8
BITMAP
1FF800
FFFE00
FFFF00
FFFF80
FFFFC0
FC1FE0
FC0FE0
FC07E0
FC07F0
FC03F0
FC03F0
FC03F0
FC03F0
FC03F0
FC03F0
FC03F0
FC07F0
FC07E0
FC07E0
FE0FE0
FFFFC0
FFFFC0
FFFF80
FFFF00
FCFC00
FC0000
FC0000
FC0000
FC0000
FC0000
FC0000
FC0000
ENDCHAR
STARTCHAR 0071
ENCODING 113
SWIDTH 514 0
DWIDTH 25 0
BBX 19 32 2 -8
BITMAP
01FF00
07FFE0
1FFFE0
3FFFE0
3FFFE0
7F87E0
7E07E0
FE07E0
FC07E0
FC07E0
FC07E0
FC07E0
FC07E0
FC07E0
FC07E0
FC07E0
FC07E0
FC07E0
FE07E0
7F0FE0
7FFFE0
3FFFE0
1FFFE0
0FFFE0
03F7E0
0007E0
0007E0
0007E0
0007E0
0007E0
0007E0
0007E0
ENDCHAR
STARTCHAR 0072
ENCODING 114
SWIDTH 514 0
DWIDTH 25 0
BBX 18 24 4 0
BITMAP
03FF80
3FFFC0
FFFFC0
FFFFC0
FFFFC0
FE0080
FC0000
FC0000
FC0000
FC0000
FC0000
FC0000
FC0000
FC0000
FC0000
FC0000
FC0000
FC0000
FC0000
FC0000
FC0000
FC0000
FC0000
FC0000
ENDCHAR
STARTCHAR 0073
ENCODING 115
SWIDTH 514 0
DWIDTH 25 0
BBX 19 25 3 -1
BITMAP
03FE00
0FFFC0
3FFF80
7FFF80
7FFF80
FE0380
FC0000
FC0000
FE0000
FF8000
7FF000
3FFC00
1FFF00
0FFF80
03FFC0
007FC0
000FE0
0007E0
4007E0
F80FC0
FFFFC0
FFFFC0
FFFF80
7FFE00
0FF800
ENDCHAR
STARTCHAR 0074
ENCODING 116
SWIDTH 514 0
DWIDTH 25 0
BBX 21 31 2 -1
BITMAP
00E000
07E000
07E000
07E000
07E000
07E000
07E000
FFFFF8
FFFFF8
FFFFF8
FFFFF8
FFFFF8
07E000
07E000
07E000
07E000
07E000
07E000
07E000
07E000
07E000
07E000
07E000
07E000
07E000
07F030
03FFF8
03FFF8
01FFF8
00FFF8
003FE0
ENDCHAR
STARTCHAR 0075
ENCODING 117
SWIDTH 514 0
DWIDTH 25 0
BBX 18 24 3 -1
BITMAP
FC0FC0
FC0FC0
FC0FC0
FC0FC0
FC0FC0
FC0FC0
FC0FC0
FC0FC0
FC0FC0
FC0FC0
FC0FC0
FC0FC0
FC0FC0
FC0FC0
FC0FC0
FC0FC0
FC0FC0
FE0FC0
7F0FC0
7FFFC0
7FFFC0
3FFFC0
1FFFC0
07FE00
ENDCHAR
STARTCHAR 0076
ENCODING 118
SWIDTH 514 0
DWIDTH 25 0
BBX 23 23 1 0
BITMAP
FC007E
FC00FC
FE00FC
7E00FC
7E01F8
7F01F8
3F01F8
3F03F0
3F03F0
1F83F0
1F87E0
0F87E0
0FCFC0
0FCFC0
07EFC0
07FF80
07FF80
03FF00
03FF00
01FE00
01FE00
00FC00
00FC00
ENDCHAR
STARTCHAR 0077
ENCODING 119
SWIDTH 514 0
DWIDTH 25 0
BBX 23 23 1 0
BITMAP
F8003E
F8003E
F8003E
F8003E
F8003E
F87C3C
F87C3C
F87C7C
F8FC7C
78FE7C
78FE7C
78FE7C
79FE78
79FF78
7DEF78
7FCF78
3FCFF8
3FC7F8
3F87F0
3F87F0
3F83F0
1F03F0
1F01E0
ENDCHAR
STARTCHAR 0078
ENCODING 120
SWIDTH 514 0
DWIDTH 25 0
BBX 22 23 1 0
BITMAP
FE00FC
7E01F8
3F01F8
1F83F0
1FC7E0
0FC7E0
07EFC0
07FF80
03FF80
01FF00
00FE00
00FE00
01FF00
03FF80
03FF80
07FFC0
0FCFE0
1F87E0
1F83F0
3F03F8
7E01F8
7E01FC
FC00FC
ENDCHAR
STARTCHAR 0079
ENCODING 121
SWIDTH 514 0
DWIDTH 25 0
BBX 22 32 1 -9
BITMAP
7E00FC
7E00FC
7F01F8
3F01F8
3F01F8
3F81F8
1F83F0
1F83F0
1F83F0
0FC3F0
0FC7E0
0FC7E0
07E7E0
07E7C0
07FFC0
03FFC0
03FF80
01FF80
01FF80
01FF00
00FF00
00FE00
007E00
007E00
00FC00
00FC00
43F800
7FF800
7FF000
FFE000
FFC000
7F0000
ENDCHAR
STARTCHAR 007A
ENCODING 122
SWIDTH 514 0
DWIDTH 25 0
BBX 18 23 3 0
BITMAP
7FFFC0
7FFFC0
7FFFC0
7FFFC0
7FFF80
003F80
007F00
00FE00
00FC00
01FC00
03F800
07F000
07E000
0FE000
1FC000
1F8000
3F8000
7F0000
7FFFC0
FFFFC0
FFFFC0
FFFFC0
FFFFC0
ENDCHAR
STARTCHAR 007B
ENCODING 123
SWIDTH 514 0
DWIDTH 25 0
BBX 18 42 3 -8
BITMAP
007FC0
00FFC0
01FFC0
03FFC0
03FFC0
03F000
03E000
03E000
03E000
03E000
03E000
03E000
03E000
03E000
03E000
07E000
07E000
0FC000
FFC000
FF8000
FC0000
FF8000
FFC000
0FC000
07E000
07E000
03E000
03E000
03E000
03E000
03E000
03E000
03E000
03E000
03E000
03E000
03F000
03FFC0
03FFC0
01FFC0
00FFC0
007FC0
ENDCHAR
STARTCHAR 007C
ENCODING 124
SWIDTH 514 0
DWIDTH 25 0
BBX 6 42 9 -8
BITMAP
FC
FC
FC
FC
FC
FC
FC
FC
FC
FC
FC
FC
FC
FC
FC
FC
FC
FC
FC
FC
FC
FC
FC
FC
FC
FC
FC
FC
FC
FC
FC
FC
FC
FC
FC
FC
FC
FC
FC
FC
FC
FC
ENDCHAR
STARTCHAR 007D
ENCODING 125
SWIDTH 514 0
DWIDTH 25 0
BBX 18 42 3 -8
BITMAP
FF8000
FFE000
FFF000
FFF000
FFF800
03F800
01F800
01F800
01F800
01F800
01F800
01F800
01F800
01F800
01F800
01F800
00F800
00FC00
007FC0
003FC0
000FC0
003FC0
007FC0
00FC00
00F800
01F800
01F800
01F800
01F800
01F800
01F800
01F800
01F800
01F800
01F800
01F800
03F800
FFF800
FFF000
FFF000
FFE000
FF8000
ENDCHAR
STARTCHAR 007E
ENCODING 126
SWIDTH 514 0
DWIDTH 25 0
BBX 23 9 1 8
BITMAP
07C030
1FF03E
3FFC7E
7FFFFC
7FFFFC
7FFFF8
FC7FF8
F81FF0
1807C0
ENDCHAR
STARTCHAR 00A0
ENCODING 160
SWIDTH 514 0
DWIDTH 25 0
BBX 0 0 0 0
BITMAP
ENDCHAR
STARTCHAR 00A1
ENCODING 161
SWIDTH 514 0
DWIDTH 25 0
BBX 8 31 8 -8
BITMAP
3C
7F
FF
FF
FF
7F
3C
00
00
00
00
3E
7E
7E
7E
7E
7E
7F
7F
7F
7F
7F
7F
7F
7F
7F
7F
7F
7F
7F
7F
ENDCHAR
STARTCHAR 00A2
ENCODING 162
SWIDTH 514 0
DWIDTH 25 0
BBX 20 34 2 -4
BITMAP
007E00
007E00
007E00
007E00
007E00
007E00
01FFE0
07FFF0
0FFFF0
1FFFE0
3FFFE0
7FC060
7F0000
7E0000
FE0000
FE0000
FC0000
FC0000
FE0000
FE0000
7E0000
7F0000
7FC030
3FFFF0
1FFFF0
0FFFF0
07FFF0
01FFF0
007E00
007E00
007E00
007E00
007E00
007E00
ENDCHAR
STARTCHAR 00A3
ENCODING 163
SWIDTH 514 0
DWIDTH 25 0
BBX 20 31 2 0
BITMAP
003FC0
01FFF0
03FFE0
07FFE0
07FFE0
0FF040
0FC000
0FC000
0FC000
0FC000
0F8000
0F8000
0F8000
0F8000
FFFF80
FFFF80
FFFF80
FFFF80
FFFF80
0F8000
0F8000
1F8000
1F8000
1F8000
1F8000
1F8000
1FFFF0
1FFFF0
1FFFF0
1FFFF0
3FFFF0
ENDCHAR
STARTCHAR 00A4
ENCODING 164
SWIDTH 514 0
DWIDTH 25 0
BBX 22 21 1 5
BITMAP
080020
3C0070
7EFEF8
FFFFFC
7FFFFC
3FFFF8
1FFFF0
1F87F0
3F03F0
3F01F0
3F01F0
3F01F0
3F03F0
1F87F0
1FFFF0
3FFFF8
7FFFFC
FFFFFC
7EFEF8
3C0070
080020
ENDCHAR
STARTCHAR 00A5
ENCODING 165
SWIDTH 514 0
DWIDTH 25 0
BBX 23 30 1 0
BITMAP
FC007E
FE00FC
7E00FC
7E00F8
3F01F8
3F01F8
1F03F0
1F83F0
0F87E0
0FC7E0
07C7C0
07EFC0
03EF80
03FF80
3FFFF8
3FFFF8
3FFFF8
3FFFF8
00FC00
00FC00
00FC00
3FFFF8
3FFFF8
3FFFF8
3FFFF8
00FC00
00FC00
00FC00
00FC00
00FC00
ENDCHAR
STARTCHAR 00A6
ENCODING 166
SWIDTH 514 0
DWIDTH 25 0
BBX 6 42 9 -8
BITMAP
FC
FC
FC
FC
FC
FC
FC
FC
FC
FC
FC
FC
FC
FC
FC
FC
FC
00
00
00
00
00
00
00
00
FC
FC
FC
FC
FC
FC
FC
FC
FC
FC
FC
FC
FC
FC
FC
FC
FC
ENDCHAR
STARTCHAR 00A7
ENCODING 167
SWIDTH 514 0
DWIDTH 25 0
BBX 19 36 3 -5
BITMAP
03FE00
0FFFC0
1FFFC0
3FFFC0
3FFF80
7F0180
7F0000
7E0000
7F0000
3FC000
3FF000
1FFE00
3FFF00
7FFF80
7CFFC0
FC1FE0
F807E0
F807E0
F803E0
FC03E0
FE07E0
7FCFC0
7FFF80
1FFF00
0FFF80
01FF80
007FC0
001FC0
000FC0
400FC0
781FC0
FFFFC0
FFFFC0
FFFF80
FFFF00
0FF800
ENDCHAR
STARTCHAR 00A8
ENCODING 168
SWIDTH 514 0
DWIDTH 25 0
BBX 17 7 4 27
BITMAP
381E00
7C3F00
FE3F00
FE3F80
FE3F00
7C3F00
381E00
ENDCHAR
STARTCHAR 00A9
ENCODING 169
SWIDTH 514 0
DWIDTH 25 0
BBX 22 25 1 -1
BITMAP
00FE00
03FF80
0FFFC0
1F83E0
3E00F0
3C0078
787E78
78FE3C
71FC3C
F1C01C
F3801C
F3801C
F3801C
F3801C
F3801C
F3C01C
71FC3C
78FE3C
787C78
3C0078
3E00F0
1F83E0
0FFFC0
03FF80
00FE00
ENDCHAR
STARTCHAR 00AA
ENCODING 170
SWIDTH 514 0
DWIDTH 25 0
BBX 15 18 5 13
BITMAP
1FE0
3FF8
3FFC
3FFC
207E
003E
003E
0FFE
3FFE
7FFE
FC3E
F83E
F83E
FC3E
FFFE
7FFE
3FFE
0FF8
ENDCHAR
STARTCHAR 00AB
ENCODING 171
SWIDTH 514 0
DWIDTH 25 0
BBX 20 21 2 2
BITMAP
010040
0380E0
03C1F0
07C1E0
0F83E0
0F07C0
1F07C0
3E0F80
3E0F80
7C1F00
FC3F00
7C1F00
3E0F80
3E0F80
1F07C0
0F07C0
0F83E0
07C1E0
03C1F0
0380E0
010040
ENDCHAR
STARTCHAR 00AC
ENCODING 172
SWIDTH 514 0
DWIDTH 25 0
BBX 20 16 2 1
BITMAP
FFFFF0
FFFFF0
FFFFF0
FFFFF0
FFFFF0
0001F0
0001F0
0001F0
0001F0
0001F0
0001F0
0001F0
0001F0
0001F0
0001F0
0001F0
ENDCHAR
STARTCHAR 00AD
ENCODING 173
SWIDTH 514 0
DWIDTH 25 0
BBX 13 6 6 9
BITMAP
FFF8
FFF8
FFF8
FFF8
FFF8
FFF8
ENDCHAR
STARTCHAR 00AE
ENCODING 174
SWIDTH 514 0
DWIDTH 25 0
BBX 22 25 1 -1
BITMAP
00FE00
03FF80
0FFFC0
1F83E0
3E00F0
3C0078
79F878
79FE3C
71FF3C
F1C71C
F1C71C
F1C71C
F1FF1C
F1FE1C
F1FC1C
F1CE1C
71CE3C
79C73C
79C778
3C0078
3E00F0
1F83E0
0FFFC0
03FF80
00FE00
ENDCHAR
STARTCHAR 00AF
ENCODING 175
SWIDTH 514 0
DWIDTH 25 0
BBX 14 4 5 28
BITMAP
FFFC
FFFC
FFFC
FFFC
ENDCHAR
STARTCHAR 00B0
ENCODING 176
SWIDTH 514 0
DWIDTH 25 0
BBX 14 13 5 21
BITMAP
0FC0
1FF0
3FF8
7FFC
7C7C
F83C
F83C
F83C
7C7C
7FFC
7FF8
3FF0
0FC0
ENDCHAR
STARTCHAR 00B1
ENCODING 177
SWIDTH 514 0
DWIDTH 25 0
BBX 21 28 2 0
BITMAP
00F800
00F800
00F800
00F800
00F800
00F800
00F800
00F800
FFFFF8
FFFFF8
FFFFF8
FFFFF8
FFFFF8
00F800
00F800
00F800
00F800
00F800
00F800
00F800
00F800
000000
000000
FFFFF8
FFFFF8
FFFFF8
FFFFF8
FFFFF8
ENDCHAR
STARTCHAR 00B2
ENCODING 178
SWIDTH 514 0
DWIDTH 25 0
BBX 13 18 6 13
BITMAP
1F80
7FE0
FFF0
FFF0
71F0
41F0
01F0
01F0
03F0
0FE0
1FC0
3F80
3E00
7C00
7FF8
FFF8
FFF8
FFF8
ENDCHAR
STARTCHAR 00B3
ENCODING 179
SWIDTH 514 0
DWIDTH 25 0
BBX 13 18 6 13
BITMAP
1F80
FFE0
FFE0
7FF0
61F0
01F0
01F0
1FE0
1FC0
1FF0
1FF0
01F8
00F8
C0F8
FFF0
FFF0
FFE0
7F80
ENDCHAR
STARTCHAR 00B4
ENCODING 180
SWIDTH 514 0
DWIDTH 25 0
BBX 10 9 8 25
BITMAP
0300
0700
0F80
3F80
7FC0
FF80
FE00
7800
6000
ENDCHAR
STARTCHAR 00B5
ENCODING 181
SWIDTH 514 0
DWIDTH 25 0
BBX 18 31 3 -8
BITMAP
FC0FC0
FC0FC0
FC0FC0
FC0FC0
FC0FC0
FC0FC0
FC0FC0
FC0FC0
FC0FC0
FC0FC0
FC0FC0
FC0FC0
FC0FC0
FC0FC0
FC0FC0
FC0FC0
FC0FC0
FE0FC0
FF0FC0
FFFFC0
FFFFC0
FFFFC0
FFFFC0
FFFE00
FC0000
FC0000
FC0000
FC0000
FC0000
FC0000
FC0000
ENDCHAR
STARTCHAR 00B6
ENCODING 182
SWIDTH 514 0
DWIDTH 25 0
BBX 21 39 1 -8
BITMAP
00FFE0
07FFF8
1FFFF8
3FFFF8
7FFFF8
7FF0F8
FFF0F8
FFF0F8
FFF0F8
FFF0F8
FFF0F8
FFF0F8
FFF0F8
FFF0F8
7FF0F8
7FF0F8
3FF0F8
0FF0F8
03F0F8
01F0F8
01F0F8
01F0F8
01F0F8
01F0F8
01F0F8
01F0F8
01F0F8
01F0F8
01F0F8
01F0F8
01F0F8
01F0F8
01F0F8
01F0F8
01F0F8
01F0F8
01F0F8
01F0F8
01F0F8
ENDCHAR
STARTCHAR 00B7
ENCODING 183
SWIDTH 514 0
DWIDTH 25 0
BBX 9 9 8 8
BITMAP
3C00
7F00
FF00
FF80
FF80
FF80
FF00
7F00
3C00
ENDCHAR
STARTCHAR 00B8
ENCODING 184
SWIDTH 514 0
DWIDTH 25 0
BBX 10 8 8 -8
BITMAP
1E00
1E00
3F00
0780
07C0
FF80
FF80
FE00
ENDCHAR
STARTCHAR 00B9
ENCODING 185
SWIDTH 514 0
DWIDTH 25 0
BBX 15 17 6 13
BITMAP
03E0
07E0
1FE0
FFE0
7FE0
7FE0
73E0
03E0
03E0
03E0
03E0
03E0
03E0
7FFE
7FFE
7FFE
7FFE
ENDCHAR
STARTCHAR 00BA
ENCODING 186
SWIDTH 514 0
DWIDTH 25 0
BBX 17 19 4 12
BITMAP
07E000
1FF800
3FFC00
7FFE00
7FFF00
FC3F00
F81F00
F81F80
F80F80
F80F80
F80F80
F81F80
F81F00
FC3F00
7FFF00
7FFE00
3FFC00
1FF800
07E000
ENDCHAR
STARTCHAR 00BB
ENCODING 187
SWIDTH 514 0
DWIDTH 25 0
BBX 19 20 3 3
BITMAP
200800
F03800
F03C00
F83E00
7C1E00
7C1F00
3E0F80
1F0F80
1F07C0
0F83E0
0F83E0
1F07C0
1F0F80
3E0F80
7C1F00
7C1E00
F83E00
F03C00
F03800
200800
ENDCHAR
STARTCHAR 00BC
ENCODING 188
SWIDTH 514 0
DWIDTH 25 0
BBX 24 30 0 0
BITMAP
07007C
1F00F8
7F00F8
FF01F0
7F01F0
6F03E0
0F03E0
0F07C0
0F07C0
0F0F80
0F0F80
0F1F00
001E00
003E00
003C00
007C00
00F800
00F800
01F07C
01F0FC
03E0FC
03E1DC
07C3DC
07C39C
0F871C
0F87FF
1F0FFF
1F0FFF
3E001C
3E001C
ENDCHAR
STARTCHAR 00BD
ENCODING 189
SWIDTH 514 0
DWIDTH 25 0
BBX 24 30 0 0
BITMAP
07007C
0F00F8
3F00F8
FF01F0
FF01F0
6F03E0
0F03E0
0F07C0
0F07C0
0F0F80
0F0F80
0F1F00
001E00
003E00
003C00
007C00
00F800
00F8F8
01F3FE
01F3FF
03E11F
03E00F
07C01F
07C03E
0F80FC
0F81F8
1F03E0
1F03FF
3E03FF
3E03FF
ENDCHAR
STARTCHAR 00BE
ENCODING 190
SWIDTH 514 0
DWIDTH 25 0
BBX 23 31 1 0
BITMAP
7F0000
FF807C
7FC0F8
47C0F8
07C1F0
3F81F0
3F83E0
3FC3C0
03C7C0
83C780
FFCF80
FF9F00
FF1F00
003E00
003E00
007C00
007C00
00F800
00F800
01F0F8
01F1F8
03E1F8
03E3B8
07C7B8
07C738
0F8E38
0F8FFE
1F1FFE
1F1FFE
3E0038
3E0038
ENDCHAR
STARTCHAR 00BF
ENCODING 191
SWIDTH 514 0
DWIDTH 25 0
BBX 18 32 3 -8
BITMAP
00F800
01FC00
03FC00
03FC00
03FC00
01FC00
00F800
000000
000000
000000
000000
00FC00
00FC00
01F800
03F800
07F800
0FF000
1FF000
1FE000
3FC000
7F8000
7F0000
FE0000
FE0000
FE0000
7E0080
7F0780
7FFF80
3FFFC0
3FFFC0
0FFF80
03FC00
ENDCHAR
STARTCHAR 00C0
ENCODING 192
SWIDTH 514 0
DWIDTH 25 0
BBX 23 41 1 0
BITMAP
008000
00E000
01F000
03FC00
03FE00
01FF00
007F00
001E00
000600
000000
000000
00FE00
00FE00
01FE00
01FF00
01FF00
03FF00
03FF80
03EF80
07CF80
07CFC0
07C7C0
0FC7C0
0F87C0
0F87E0
0F87E0
1F83E0
1F83F0
1F03F0
3FFFF0
3FFFF0
3FFFF8
3FFFF8
7FFFF8
7E01F8
7E01FC
7E00FC
FC00FC
FC00FC
FC00FE
FC00FE
ENDCHAR
STARTCHAR 00C1
ENCODING 193
SWIDTH 514 0
DWIDTH 25 0
BBX 23 41 1 0
BITMAP
000400
000E00
003E00
007F00
01FF00
03FE00
03F800
01E000
008000
000000
000000
00FE00
00FE00
01FE00
01FF00
01FF00
03FF00
03FF80
03EF80
07CF80
07CFC0
07C7C0
0FC7C0
0F87C0
0F87E0
0F87E0
1F83E0
1F83F0
1F03F0
3FFFF0
3FFFF0
3FFFF8
3FFFF8
7FFFF8
7E01F8
7E01FC
7E00FC
FC00FC
FC00FC
FC00FE
FC00FE
ENDCHAR
STARTCHAR 00C2
ENCODING 194
SWIDTH 514 0
DWIDTH 25 0
BBX 23 41 1 0
BITMAP
001000
003800
007C00
01FE00
03FF00
07EF80
07C7C0
038380
010100
000000
000000
00FE00
00FE00
01FE00
01FF00
01FF00
03FF00
03FF80
03EF80
07CF80
07CFC0
07C7C0
0FC7C0
0F87C0
0F87E0
0F87E0
1F83E0
1F83F0
1F03F0
3FFFF0
3FFFF0
3FFFF8
3FFFF8
7FFFF8
7E01F8
7E01FC
7E00FC
FC00FC
FC00FC
FC00FE
FC00FE
ENDCHAR
STARTCHAR 00C3
ENCODING 195
SWIDTH 514 0
DWIDTH 25 0
BBX 23 40 1 0
BITMAP
01C080
07F1C0
07FFE0
0FFFE0
1FFFC0
0E3F80
020F00
000000
000000
000000
00FE00
00FE00
01FE00
01FF00
01FF00
03FF00
03FF80
03EF80
07CF80
07CFC0
07C7C0
0FC7C0
0F87C0
0F87E0
0F87E0
1F83E0
1F83F0
1F03F0
3FFFF0
3FFFF0
3FFFF8
3FFFF8
7FFFF8
7E01F8
7E01FC
7E00FC
FC00FC
FC00FC
FC00FE
FC00FE
ENDCHAR
STARTCHAR 00C4
ENCODING 196
SWIDTH 514 0
DWIDTH 25 0
BBX 23 41 1 0
BITMAP
0703C0
0F87E0
1FC7E0
1FC7F0
1FC7E0
0F87E0
0703C0
000000
000000
000000
000000
00FE00
00FE00
01FE00
01FF00
01FF00
03FF00
03FF80
03EF80
07CF80
07CFC0
07C7C0
0FC7C0
0F87C0
0F87E0
0F87E0
1F83E0
1F83F0
1F03F0
3FFFF0
3FFFF0
3FFFF8
3FFFF8
7FFFF8
7E01F8
7E01FC
7E00FC
FC00FC
FC00FC
FC00FE
FC00FE
ENDCHAR
STARTCHAR 00C5
ENCODING 197
SWIDTH 514 0
DWIDTH 25 0
BBX 23 39 1 0
BITMAP
001000
00FE00
01FF00
03EF00
038700
038700
03C700
03FF00
01FE00
00FE00
01FE00
01FE00
01FF00
01FF00
03FF00
03FF80
03FF80
07EF80
07CFC0
07CFC0
0FC7C0
0FC7E0
0F87E0
0F87E0
1F83E0
1F83F0
1F03F0
3FFFF0
3FFFF0
3FFFF8
3FFFF8
7FFFF8
7E01FC
7E01FC
7E00FC
FC00FC
FC00FC
FC00FE
FC00FE
ENDCHAR
STARTCHAR 00C6
ENCODING 198
SWIDTH 514 0
DWIDTH 25 0
BBX 23 30 1 0
BITMAP
00FFFC
00FFFC
00FFFC
01FFFC
01FFFC
01FF80
03FF80
03FF80
03DF80
07DF80
07DF80
07DF80
0F9FF8
0F9FF8
0F9FF8
1F9FF8
1F1FF8
1F1F80
3FFF80
3FFF80
3FFF80
3FFF80
7FFF80
7E1F80
7E1F80
7E1FFE
FC1FFE
FC1FFE
FC1FFE
FC1FFE
ENDCHAR
STARTCHAR 00C7
ENCODING 199
SWIDTH 514 0
DWIDTH 25 0
BBX 22 39 1 -8
BITMAP
003FC0
00FFF8
03FFFC
07FFF8
0FFFF8
1FE078
1FC008
3F8000
3F0000
7F0000
7E0000
7E0000
7E0000
FE0000
FC0000
FC0000
FC0000
FC0000
FE0000
FE0000
7E0000
7E0000
7E0000
7F0000
3F8000
3F8008
1FE038
1FFFF8
0FFFFC
07FFFC
03FFF8
00FFC0
003C00
007F00
000F00
000F80
01FF00
01FF00
01FC00
ENDCHAR
STARTCHAR 00C8
ENCODING 200
SWIDTH 514 0
DWIDTH 25 0
BBX 20 41 3 0
BITMAP
020000
038000
07C000
0FF000
0FF800
07FC00
01FC00
007800
001800
000000
000000
FFFFC0
FFFFC0
FFFFC0
FFFFC0
FFFFC0
FC0000
FC0000
FC0000
FC0000
FC0000
FC0000
FC0000
FFFF80
FFFF80
FFFF80
FFFF80
FFFF80
FC0000
FC0000
FC0000
FC0000
FC0000
FC0000
FC0000
FC0000
FFFFF0
FFFFF0
FFFFF0
FFFFF0
FFFFF0
ENDCHAR
STARTCHAR 00C9
ENCODING 201
SWIDTH 514 0
DWIDTH 25 0
BBX 20 41 3 0
BITMAP
001000
003800
00F800
01FC00
07FC00
0FF800
0FE000
078000
020000
000000
000000
FFFFC0
FFFFC0
FFFFC0
FFFFC0
FFFFC0
FC0000
FC0000
FC0000
FC0000
FC0000
FC0000
FC0000
FFFF80
FFFF80
FFFF80
FFFF80
FFFF80
FC0000
FC0000
FC0000
FC0000
FC0000
FC0000
FC0000
FC0000
FFFFF0
FFFFF0
FFFFF0
FFFFF0
FFFFF0
ENDCHAR
STARTCHAR 00CA
ENCODING 202
SWIDTH 514 0
DWIDTH 25 0
BBX 20 41 3 0
BITMAP
004000
00E000
01F000
07F800
0FFC00
1FBE00
1F1F00
0E0E00
040400
000000
000000
FFFFC0
FFFFC0
FFFFC0
FFFFC0
FFFFC0
FC0000
FC0000
FC0000
FC0000
FC0000
FC0000
FC0000
FFFF80
FFFF80
FFFF80
FFFF80
FFFF80
FC0000
FC0000
FC0000
FC0000
FC0000
FC0000
FC0000
FC0000
FFFFF0
FFFFF0
FFFFF0
FFFFF0
FFFFF0
ENDCHAR
STARTCHAR 00CB
ENCODING 203
SWIDTH 514 0
DWIDTH 25 0
BBX 20 41 3 0
BITMAP
1C0F00
3E1F80
7F1F80
7F1FC0
7F1F80
3E1F80
1C0F00
000000
000000
000000
000000
FFFFC0
FFFFC0
FFFFC0
FFFFC0
FFFFC0
FC0000
FC0000
FC0000
FC0000
FC0000
FC0000
FC0000
FFFF80
FFFF80
FFFF80
FFFF80
FFFF80
FC0000
FC0000
FC0000
FC0000
FC0000
FC0000
FC0000
FC0000
FFFFF0
FFFFF0
FFFFF0
FFFFF0
FFFFF0
ENDCHAR
STARTCHAR 00CC
ENCODING 204
SWIDTH 514 0
DWIDTH 25 0
BBX 19 41 3 0
BITMAP
020000
038000
07C000
0FF000
0FF800
07FC00
01FC00
007800
001800
000000
000000
FFFFE0
FFFFE0
FFFFE0
FFFFE0
FFFFE0
03F000
03F000
03F000
03F000
03F000
03F000
03F000
03F000
03F000
03F000
03F000
03F000
03F000
03F000
03F000
03F000
03F000
03F000
03F000
03F000
FFFFE0
FFFFE0
FFFFE0
FFFFE0
FFFFE0
ENDCHAR
STARTCHAR 00CD
ENCODING 205
SWIDTH 514 0
DWIDTH 25 0
BBX 19 41 3 0
BITMAP
001000
003800
00F800
01FC00
07FC00
0FF800
0FE000
078000
020000
000000
000000
FFFFE0
FFFFE0
FFFFE0
FFFFE0
FFFFE0
03F000
03F000
03F000
03F000
03F000
03F000
03F000
03F000
03F000
03F000
03F000
03F000
03F000
03F000
03F000
03F000
03F000
03F000
03F000
03F000
FFFFE0
FFFFE0
FFFFE0
FFFFE0
FFFFE0
ENDCHAR
STARTCHAR 00CE
ENCODING 206
SWIDTH 514 0
DWIDTH 25 0
BBX 19 41 3 0
BITMAP
004000
00E000
01F000
07F800
0FFC00
1FBE00
1F1F00
0E0E00
040400
000000
000000
FFFFE0
FFFFE0
FFFFE0
FFFFE0
FFFFE0
03F000
03F000
03F000
03F000
03F000
03F000
03F000
03F000
03F000
03F000
03F000
03F000
03F000
03F000
03F000
03F000
03F000
03F000
03F000
03F000
FFFFE0
FFFFE0
FFFFE0
FFFFE0
FFFFE0
ENDCHAR
STARTCHAR 00CF
ENCODING 207
SWIDTH 514 0
DWIDTH 25 0
BBX 19 41 3 0
BITMAP
1C0F00
3E1F80
7F1F80
7F1FC0
7F1F80
3E1F80
1C0F00
000000
000000
000000
000000
FFFFE0
FFFFE0
FFFFE0
FFFFE0
FFFFE0
03F000
03F000
03F000
03F000
03F000
03F000
03F000
03F000
03F000
03F000
03F000
03F000
03F000
03F000
03F000
03F000
03F000
03F000
03F000
03F000
FFFFE0
FFFFE0
FFFFE0
FFFFE0
FFFFE0
ENDCHAR
STARTCHAR 00D0
ENCODING 208
SWIDTH 514 0
DWIDTH 25 0
BBX 22 31 1 -1
BITMAP
0FFC00
3FFF00
3FFFC0
3FFFE0
3FFFE0
3F8FF0
3F83F8
3F83F8
3F81F8
3F81FC
3F80FC
3F80FC
FFF0FC
FFF0FC
FFF0FC
FFF0FC
FFF0FC
3F80FC
3F80FC
3F80FC
3F80FC
3F81F8
3F81F8
3F83F8
3F87F0
3F8FF0
3FFFE0
3FFFC0
3FFF80
3FFF00
0FF800
ENDCHAR
STARTCHAR 00D1
ENCODING 209
SWIDTH 514 0
DWIDTH 25 0
BBX 20 40 2 0
BITMAP
038100
0FE380
0FFFC0
1FFFC0
3FFF80
1C7F00
041E00
000000
000000
000000
F801F0
FC01F0
FE01F0
FE01F0
FF01F0
FF01F0
FF81F0
FF81F0
FFC1F0
FFC1F0
FFE1F0
FFF1F0
FDF1F0
FCF9F0
FCF9F0
FC79F0
FC7DF0
FC3DF0
FC3FF0
FC1FF0
FC1FF0
FC0FF0
FC0FF0
FC07F0
FC07F0
FC07F0
FC03F0
FC03F0
FC01F0
FC01F0
ENDCHAR
STARTCHAR 00D2
ENCODING 210
SWIDTH 514 0
DWIDTH 25 0
BBX 22 42 1 -1
BITMAP
008000
00E000
01F000
03FC00
03FE00
01FF00
007F00
001E00
000600
000000
00FE00
03FF80
07FFC0
0FFFE0
1FFFF0
3F87F0
3F03F8
7F01F8
7E01F8
7E00FC
7E00FC
7E00FC
FE00FC
FC00FC
FC00FC
FC00FC
FC00FC
FC00FC
FC00FC
FE00FC
7E00FC
7E00FC
7E00FC
7E01F8
7F01F8
3F03F8
3F87F0
1FFFF0
0FFFE0
0FFFC0
03FF80
00FE00
ENDCHAR
STARTCHAR 00D3
ENCODING 211
SWIDTH 514 0
DWIDTH 25 0
BBX 22 42 1 -1
BITMAP
000400
000E00
003E00
007F00
01FF00
03FE00
03F800
01E000
008000
000000
00FE00
03FF80
07FFC0
0FFFE0
1FFFF0
3F87F0
3F03F8
7F01F8
7E01F8
7E00FC
7E00FC
7E00FC
FE00FC
FC00FC
FC00FC
FC00FC
FC00FC
FC00FC
FC00FC
FE00FC
7E00FC
7E00FC
7E00FC
7E01F8
7F01F8
3F03F8
3F87F0
1FFFF0
0FFFE0
0FFFC0
03FF80
00FE00
ENDCHAR
STARTCHAR 00D4
ENCODING 212
SWIDTH 514 0
DWIDTH 25 0
BBX 22 42 1 -1
BITMAP
001000
003800
007C00
01FE00
03FF00
07EF80
07C7C0
038380
010100
000000
00FE00
03FF80
07FFC0
0FFFE0
1FFFF0
3F87F0
3F03F8
7F01F8
7E01F8
7E00FC
7E00FC
7E00FC
FE00FC
FC00FC
FC00FC
FC00FC
FC00FC
FC00FC
FC00FC
FE00FC
7E00FC
7E00FC
7E00FC
7E01F8
7F01F8
3F03F8
3F87F0
1FFFF0
0FFFE0
0FFFC0
03FF80
00FE00
ENDCHAR
STARTCHAR 00D5
ENCODING 213
SWIDTH 514 0
DWIDTH 25 0
BBX 22 41 1 -1
BITMAP
01C080
07F1C0
07FFE0
0FFFE0
1FFFC0
0E3F80
020F00
000000
000000
00FE00
03FF80
07FFC0
0FFFE0
1FFFF0
3F87F0
3F03F8
7F01F8
7E01F8
7E00FC
7E00FC
7E00FC
FE00FC
FC00FC
FC00FC
FC00FC
FC00FC
FC00FC
FC00FC
FE00FC
7E00FC
7E00FC
7E00FC
7E01F8
7F01F8
3F03F8
3F87F0
1FFFF0
0FFFE0
0FFFC0
03FF80
00FE00
ENDCHAR
STARTCHAR 00D6
ENCODING 214
SWIDTH 514 0
DWIDTH 25 0
BBX 22 42 1 -1
BITMAP
0703C0
0F87E0
1FC7E0
1FC7F0
1FC7E0
0F87E0
0703C0
000000
000000
000000
00FE00
03FF80
07FFC0
0FFFE0
1FFFF0
3F87F0
3F03F8
7F01F8
7E01F8
7E00FC
7E00FC
7E00FC
FE00FC
FC00FC
FC00FC
FC00FC
FC00FC
FC00FC
FC00FC
FE00FC
7E00FC
7E00FC
7E00FC
7E01F8
7F01F8
3F03F8
3F87F0
1FFFF0
0FFFE0
0FFFC0
03FF80
00FE00
ENDCHAR
STARTCHAR 00D7
ENCODING 215
SWIDTH 514 0
DWIDTH 25 0
BBX 19 19 3 4
BITMAP
100000
380100
7C03C0
FE0FE0
7F1FC0
3FBF80
1FFF00
0FFE00
07FC00
03F800
07FC00
0FFE00
1FFF00
3FBF80
7F1FC0
FE0FE0
FC07C0
780380
300100
ENDCHAR
STARTCHAR 00D8
ENCODING 216
SWIDTH 514 0
DWIDTH 25 0
BBX 22 34 1 -2
BITMAP
000040
00FEF0
03FFF8
07FFF0
0FFFF0
1FFFE0
3F87F0
3F07F8
7F07F8
7E0FF8
7E0FF8
7E1FFC
7E1FFC
FE3EFC
FE3EFC
FC7CFC
FC7CFC
FCF8FC
FCF8FC
FCF0FC
FFF0FC
7FE0FC
7FE0FC
7FC0FC
7FC1F8
3F81F8
3F83F8
3F87F0
1FFFF0
1FFFE0
3FFFC0
3FFF80
3CFE00
0C0000
ENDCHAR
STARTCHAR 00D9
ENCODING 217
SWIDTH 514 0
DWIDTH 25 0
BBX 21 42 2 -1
BITMAP
010000
038000
03E000
07F000
0FF800
03FE00
00FC00
003C00
000800
000000
000000
FC01F8
FC01F8
FC01F8
FC01F8
FC01F8
FC01F8
FC01F8
FC01F8
FC01F8
FC01F8
FC01F8
FC01F8
FC01F8
FC01F8
FC01F8
FC01F8
FC01F8
FC01F8
FC01F8
FC01F8
FC03F8
FC03F8
FC03F0
FC03F0
FE03F0
7F07F0
7FFFE0
3FFFE0
1FFFC0
0FFF00
03FC00
ENDCHAR
STARTCHAR 00DA
ENCODING 218
SWIDTH 514 0
DWIDTH 25 0
BBX 21 42 2 -1
BITMAP
000400
001C00
003E00
007F00
01FF00
03FE00
03F800
01E000
008000
000000
000000
FC01F8
FC01F8
FC01F8
FC01F8
FC01F8
FC01F8
FC01F8
FC01F8
FC01F8
FC01F8
FC01F8
FC01F8
FC01F8
FC01F8
FC01F8
FC01F8
FC01F8
FC01F8
FC01F8
FC01F8
FC03F8
FC03F8
FC03F0
FC03F0
FE03F0
7F07F0
7FFFE0
3FFFE0
1FFFC0
0FFF00
03FC00
ENDCHAR
STARTCHAR 00DB
ENCODING 219
SWIDTH 514 0
DWIDTH 25 0
BBX 21 42 2 -1
BITMAP
002000
007000
00F800
03FC00
07FE00
0FDF00
0F8F80
070700
020200
000000
000000
FC01F8
FC01F8
FC01F8
FC01F8
FC01F8
FC01F8
FC01F8
FC01F8
FC01F8
FC01F8
FC01F8
FC01F8
FC01F8
FC01F8
FC01F8
FC01F8
FC01F8
FC01F8
FC01F8
FC01F8
FC03F8
FC03F8
FC03F0
FC03F0
FE03F0
7F07F0
7FFFE0
3FFFE0
1FFFC0
0FFF00
03FC00
ENDCHAR
STARTCHAR 00DC
ENCODING 220
SWIDTH 514 0
DWIDTH 25 0
BBX 21 42 2 -1
BITMAP
0E0780
1F0FC0
3F8FC0
3F8FE0
3F8FC0
1F0FC0
0E0780
000000
000000
000000
000000
FC01F8
FC01F8
FC01F8
FC01F8
FC01F8
FC01F8
FC01F8
FC01F8
FC01F8
FC01F8
FC01F8
FC01F8
FC01F8
FC01F8
FC01F8
FC01F8
FC01F8
FC01F8
FC01F8
FC01F8
FC03F8
FC03F8
FC03F0
FC03F0
FE03F0
7F07F0
7FFFE0
3FFFE0
1FFFC0
0FFF00
03FC00
ENDCHAR
STARTCHAR 00DD
ENCODING 221
SWIDTH 514 0
DWIDTH 25 0
BBX 23 41 1 0
BITMAP
000200
000E00
001F00
003F80
00FF80
01FF00
01FC00
00F000
004000
000000
000000
FC00FE
FE00FC
7E00FC
7E01FC
7F01F8
3F01F8
3F03F0
1F83F0
1F83E0
0FC7E0
0FC7E0
0FCFC0
07EFC0
07EF80
03FF80
01FF00
01FE00
00FE00
00FC00
00FC00
00FC00
00FC00
00FC00
00FC00
00FC00
00FC00
00FC00
00FC00
00FC00
00FC00
ENDCHAR
STARTCHAR 00DE
ENCODING 222
SWIDTH 514 0
DWIDTH 25 0
BBX 20 30 3 0
BITMAP
FC0000
FC0000
FC0000
FC0000
FFF800
FFFF00
FFFF80
FFFFC0
FFFFE0
FC0FE0
FC07F0
FC07F0
FC03F0
FC03F0
FC03F0
FC03F0
FC07F0
FC07F0
FC1FE0
FFFFE0
FFFFC0
FFFF80
FFFE00
FFF000
FC0000
FC0000
FC0000
FC0000
FC0000
FC0000
ENDCHAR
STARTCHAR 00DF
ENCODING 223
SWIDTH 514 0
DWIDTH 25 0
BBX 22 35 2 -1
BITMAP
03F800
1FFE00
3FFF00
7FFF80
7FFFC0
FE1FC0
FC0FC0
FC0FC0
FC0FC0
FC0FC0
FC0FC0
FC1F80
FC1F80
FC3F00
FC7E00
FC7E00
FC7E00
FC7E00
FC7E00
FC7F00
FC7F80
FC3FE0
FC1FF0
FC0FF8
FC03FC
FC01FC
FC00FC
FC00FC
FC00FC
FC41FC
FC7FFC
FCFFF8
FCFFF8
FCFFF0
003FC0
ENDCHAR
STARTCHAR 00E0
ENCODING 224
SWIDTH 514 0
DWIDTH 25 0
BBX 20 35 2 -1
BITMAP
010000
01C000
03E000
07F000
07FC00
03FE00
00FE00
003C00
000800
000000
0FFC00
3FFF00
1FFF80
1FFFC0
1FFFE0
100FE0
0007E0
0007E0
0003F0
0003F0
03FFF0
1FFFF0
3FFFF0
7FFFF0
7FFFF0
FE03F0
FC03F0
FC03F0
FC03F0
FE03F0
7FFFF0
7FFFF0
3FFFF0
1FFFF0
07FF00
ENDCHAR
STARTCHAR 00E1
ENCODING 225
SWIDTH 514 0
DWIDTH 25 0
BBX 20 35 2 -1
BITMAP
000C00
001C00
003E00
00FE00
01FF00
03FE00
03F800
01E000
018000
000000
0FFC00
3FFF00
1FFF80
1FFFC0
1FFFE0
100FE0
0007E0
0007E0
0003F0
0003F0
03FFF0
1FFFF0
3FFFF0
7FFFF0
7FFFF0
FE03F0
FC03F0
FC03F0
FC03F0
FE03F0
7FFFF0
7FFFF0
3FFFF0
1FFFF0
07FF00
ENDCHAR
STARTCHAR 00E2
ENCODING 226
SWIDTH 514 0
DWIDTH 25 0
BBX 20 35 2 -1
BITMAP
002000
007000
00F800
03FC00
07FE00
0FDF00
0F8F80
070700
020200
000000
0FFC00
3FFF00
1FFF80
1FFFC0
1FFFE0
100FE0
0007E0
0007E0
0003F0
0003F0
03FFF0
1FFFF0
3FFFF0
7FFFF0
7FFFF0
FE03F0
FC03F0
FC03F0
FC03F0
FE03F0
7FFFF0
7FFFF0
3FFFF0
1FFFF0
07FF00
ENDCHAR
STARTCHAR 00E3
ENCODING 227
SWIDTH 514 0
DWIDTH 25 0
BBX 20 34 2 -1
BITMAP
038100
0FE380
0FFFC0
1FFFC0
1FFF80
1C7F00
041E00
000000
000000
0FFC00
3FFF00
1FFF80
1FFFC0
1FFFE0
100FE0
0007E0
0007E0
0003F0
0003F0
03FFF0
1FFFF0
3FFFF0
7FFFF0
7FFFF0
FE03F0
FC03F0
FC03F0
FC03F0
FE03F0
7FFFF0
7FFFF0
3FFFF0
1FFFF0
07FF00
ENDCHAR
STARTCHAR 00E4
ENCODING 228
SWIDTH 514 0
DWIDTH 25 0
BBX 20 35 2 -1
BITMAP
0E0780
1F0FC0
3F8FC0
3F8FE0
3F8FC0
1F0FC0
0E0780
000000
000000
000000
0FFC00
3FFF00
1FFF80
1FFFC0
1FFFE0
100FE0
0007E0
0007E0
0003F0
0003F0
03FFF0
1FFFF0
3FFFF0
7FFFF0
7FFFF0
FE03F0
FC03F0
FC03F0
FC03F0
FE03F0
7FFFF0
7FFFF0
3FFFF0
1FFFF0
07FF00
ENDCHAR
STARTCHAR 00E5
ENCODING 229
SWIDTH 514 0
DWIDTH 25 0
BBX 20 36 2 -1
BITMAP
00F800
03FC00
03FE00
078E00
070E00
070E00
078E00
03FE00
03FC00
00F800
000000
0FFC00
3FFF00
1FFF80
1FFFC0
1FFFE0
100FE0
0007E0
0007E0
0003F0
0003F0
03FFF0
1FFFF0
3FFFF0
7FFFF0
7FFFF0
FE03F0
FC03F0
FC03F0
FC03F0
FE03F0
7FFFF0
7FFFF0
3FFFF0
1FFFF0
07FF00
ENDCHAR
STARTCHAR 00E6
ENCODING 230
SWIDTH 514 0
DWIDTH 25 0
BBX 23 25 1 -1
BITMAP
0F83E0
3FE7F0
3FFFF8
3FFFF8
3FFFFC
10FE7C
007E3C
007C3E
007C3E
007C3E
0FFFFE
3FFFFE
7FFFFE
7FFFFE
FC7FFE
F87C00
F87C00
F83E00
F83E00
FC3F00
7FFFFC
7FFFFC
3FFFFC
1FE7FC
0FC1F8
ENDCHAR
STARTCHAR 00E7
ENCODING 231
SWIDTH 514 0
DWIDTH 25 0
BBX 21 32 2 -8
BITMAP
007FC0
03FFF0
07FFF0
1FFFF0
1FFFF0
3FC020
7F0000
7E0000
7E0000
FE0000
FC0000
FC0000
FC0000
FC0000
FE0000
FE0000
7F0000
7F0000
7FC030
3FFFF0
1FFFF0
0FFFF0
07FFF8
01FFF8
007FC0
007800
003E00
001E00
001F00
03FE00
03FE00
03F800
ENDCHAR
STARTCHAR 00E8
ENCODING 232
SWIDTH 514 0
DWIDTH 25 0
BBX 21 35 2 -1
BITMAP
010000
01C000
03E000
07F000
07FC00
03FE00
00FE00
003C00
000800
000000
01FC00
07FF00
0FFF80
1FFFC0
3FFFE0
7F07F0
7E03F0
FC03F0
FC01F0
FC01F8
FFFFF8
FFFFF8
FFFFF8
FFFFF8
FFFFF8
FC0000
FC0000
FC0000
7E0000
7F8060
3FFFE0
1FFFE0
0FFFE0
07FFE0
00FF80
ENDCHAR
STARTCHAR 00E9
ENCODING 233
SWIDTH 514 0
DWIDTH 25 0
BBX 21 35 2 -1
BITMAP
000400
000E00
003E00
007F00
01FF00
03FE00
03F800
01E000
008000
000000
01FC00
07FF00
0FFF80
1FFFC0
3FFFE0
7F07F0
7E03F0
FC03F0
FC01F0
FC01F8
FFFFF8
FFFFF8
FFFFF8
FFFFF8
FFFFF8
FC0000
FC0000
FC0000
7E0000
7F8060
3FFFE0
1FFFE0
0FFFE0
07FFE0
00FF80
ENDCHAR
STARTCHAR 00EA
ENCODING 234
SWIDTH 514 0
DWIDTH 25 0
BBX 21 35 2 -1
BITMAP
002000
007000
00F800
01FC00
07FF00
0FDF80
0F8F80
070700
020200
000000
01FC00
07FF00
0FFF80
1FFFC0
3FFFE0
7F07F0
7E03F0
FC03F0
FC01F0
FC01F8
FFFFF8
FFFFF8
FFFFF8
FFFFF8
FFFFF8
FC0000
FC0000
FC0000
7E0000
7F8060
3FFFE0
1FFFE0
0FFFE0
07FFE0
00FF80
ENDCHAR
STARTCHAR 00EB
ENCODING 235
SWIDTH 514 0
DWIDTH 25 0
BBX 21 35 2 -1
BITMAP
0E0780
1F0FC0
3F8FC0
3F8FE0
3F8FC0
1F0FC0
0E0780
000000
000000
000000
01FC00
07FF00
0FFF80
1FFFC0
3FFFE0
7F07F0
7E03F0
FC03F0
FC01F0
FC01F8
FFFFF8
FFFFF8
FFFFF8
FFFFF8
FFFFF8
FC0000
FC0000
FC0000
7E0000
7F8060
3FFFE0
1FFFE0
0FFFE0
07FFE0
00FF80
ENDCHAR
STARTCHAR 00EC
ENCODING 236
SWIDTH 514 0
DWIDTH 25 0
BBX 21 35 2 -1
BITMAP
020000
038000
07C000
07F000
0FF800
07FC00
01FC00
007800
001800
000000
000000
FFF000
FFF000
FFF000
FFF000
FFF000
03F000
03F000
03F000
03F000
03F000
03F000
03F000
03F000
03F000
03F000
03F000
03F000
03F800
01FC10
01FFF0
01FFF8
00FFF8
007FF8
001FC0
ENDCHAR
STARTCHAR 00ED
ENCODING 237
SWIDTH 514 0
DWIDTH 25 0
BBX 21 35 2 -1
BITMAP
000800
001C00
007C00
00FE00
03FE00
07FC00
07F000
03C000
010000
000000
000000
FFF000
FFF000
FFF000
FFF000
FFF000
03F000
03F000
03F000
03F000
03F000
03F000
03F000
03F000
03F000
03F000
03F000
03F000
03F800
01FC10
01FFF0
01FFF8
00FFF8
007FF8
001FC0
ENDCHAR
STARTCHAR 00EE
ENCODING 238
SWIDTH 514 0
DWIDTH 25 0
BBX 21 35 2 -1
BITMAP
004000
00E000
01F000
03F800
0FFE00
1FBF00
1F1F00
0E0E00
040400
000000
000000
FFF000
FFF000
FFF000
FFF000
FFF000
03F000
03F000
03F000
03F000
03F000
03F000
03F000
03F000
03F000
03F000
03F000
03F000
03F800
01FC10
01FFF0
01FFF8
00FFF8
007FF8
001FC0
ENDCHAR
STARTCHAR 00EF
ENCODING 239
SWIDTH 514 0
DWIDTH 25 0
BBX 21 35 2 -1
BITMAP
1C0700
3E0F80
7F1FC0
7F1FC0
7F1FC0
3E1F80
1C0F00
000000
000000
000000
000000
FFF000
FFF000
FFF000
FFF000
FFF000
03F000
03F000
03F000
03F000
03F000
03F000
03F000
03F000
03F000
03F000
03F000
03F000
03F800
01FC10
01FFF0
01FFF8
00FFF8
007FF8
001FC0
ENDCHAR
STARTCHAR 00F0
ENCODING 240
SWIDTH 514 0
DWIDTH 25 0
BBX 21 35 2 -1
BITMAP
006000
00F000
01F800
01FC10
01FEF8
00FFF8
007FF8
01FFF0
03FF80
03FFC0
01EFC0
010FE0
0007E0
0007E0
03FBE0
0FFFF0
1FFFF0
3FFFF0
7FFFF0
7F07F0
FE03F0
FE03F0
FC03F0
FC03F0
FC03F0
FC03F0
FC07F0
FE07F0
7E07E0
7F0FE0
3FFFC0
3FFFC0
1FFF80
0FFF00
03F800
ENDCHAR
STARTCHAR 00F1
ENCODING 241
SWIDTH 514 0
DWIDTH 25 0
BBX 19 33 3 0
BITMAP
070200
1FC700
1FFF80
3FFF80
3FFF00
38FE00
083C00
000000
000000
0FF800
FFFE00
FFFF00
FFFF80
FFFFC0
FC1FC0
FC0FC0
FC0FC0
FC0FE0
FC07E0
FC07E0
FC07E0
FC07E0
FC07E0
FC07E0
FC07E0
FC07E0
FC07E0
FC07E0
FC07E0
FC07E0
FC07E0
FC07E0
FC07E0
ENDCHAR
STARTCHAR 00F2
ENCODING 242
SWIDTH 514 0
DWIDTH 25 0
BBX 22 35 1 -1
BITMAP
008000
00E000
01F000
03F800
03FE00
01FF00
007F00
001E00
000400
000000
00FE00
03FF80
0FFFC0
1FFFE0
1FFFF0
3F87F8
3F03F8
7F01F8
7E01FC
7E00FC
FE00FC
FE00FC
FE00FC
FE00FC
7E00FC
7E00FC
7E01FC
7E01F8
3F03F8
3F87F0
1FFFF0
1FFFE0
0FFFC0
03FF80
00FE00
ENDCHAR
STARTCHAR 00F3
ENCODING 243
SWIDTH 514 0
DWIDTH 25 0
BBX 22 35 1 -1
BITMAP
000400
000E00
003E00
007F00
00FF80
03FE00
01F800
01E000
008000
000000
00FE00
03FF80
0FFFC0
1FFFE0
1FFFF0
3F87F8
3F03F8
7F01F8
7E01FC
7E00FC
FE00FC
FE00FC
FE00FC
FE00FC
7E00FC
7E00FC
7E01FC
7E01F8
3F03F8
3F87F0
1FFFF0
1FFFE0
0FFFC0
03FF80
00FE00
ENDCHAR
STARTCHAR 00F4
ENCODING 244
SWIDTH 514 0
DWIDTH 25 0
BBX 22 35 1 -1
BITMAP
001000
003800
007C00
01FE00
03FF00
07EF80
07C7C0
038380
010100
000000
00FE00
03FF80
0FFFC0
1FFFE0
1FFFF0
3F87F8
3F03F8
7F01F8
7E01FC
7E00FC
FE00FC
FE00FC
FE00FC
FE00FC
7E00FC
7E00FC
7E01FC
7E01F8
3F03F8
3F87F0
1FFFF0
1FFFE0
0FFFC0
03FF80
00FE00
ENDCHAR
STARTCHAR 00F5
ENCODING 245
SWIDTH 514 0
DWIDTH 25 0
BBX 22 34 1 -1
BITMAP
01C080
07F1C0
07FFE0
0FFFE0
0FFFC0
0E3F80
020F00
000000
000000
00FE00
03FF80
0FFFC0
1FFFE0
1FFFF0
3F87F8
3F03F8
7F01F8
7E01FC
7E00FC
FE00FC
FE00FC
FE00FC
FE00FC
7E00FC
7E00FC
7E01FC
7E01F8
3F03F8
3F87F0
1FFFF0
1FFFE0
0FFFC0
03FF80
00FE00
ENDCHAR
STARTCHAR 00F6
ENCODING 246
SWIDTH 514 0
DWIDTH 25 0
BBX 22 35 1 -1
BITMAP
0703C0
0F87E0
1FC7E0
1FC7F0
1FC7E0
0F87E0
0703C0
000000
000000
000000
00FE00
03FF80
0FFFC0
1FFFE0
1FFFF0
3F87F8
3F03F8
7F01F8
7E01FC
7E00FC
FE00FC
FE00FC
FE00FC
FE00FC
7E00FC
7E00FC
7E01FC
7E01F8
3F03F8
3F87F0
1FFFF0
1FFFE0
0FFFC0
03FF80
00FE00
ENDCHAR
STARTCHAR 00F7
ENCODING 247
SWIDTH 514 0
DWIDTH 25 0
BBX 21 26 2 -1
BITMAP
00F000
01F800
01FC00
01FC00
01FC00
01F800
00F000
000000
000000
000000
000000
FFFFF8
FFFFF8
FFFFF8
FFFFF8
FFFFF8
000000
000000
000000
00F000
01F800
01FC00
01FC00
01FC00
01F800
00F000
ENDCHAR
STARTCHAR 00F8
ENCODING 248
SWIDTH 514 0
DWIDTH 25 0
BBX 22 27 1 -2
BITMAP
000020
00FE78
03FFFC
0FFFF8
1FFFF0
1FFFF0
3F87F0
3F07F8
7E0FF8
7E1FFC
7E1FFC
FE3FFC
FE7EFC
FEFCFC
FEF8FC
7FF8FC
7FF0FC
7FE1FC
7FC1F8
3FC3F8
3F87F0
1FFFF0
3FFFE0
3FFFC0
7FFF80
38FE00
100000
ENDCHAR
STARTCHAR 00F9
ENCODING 249
SWIDTH 514 0
DWIDTH 25 0
BBX 18 35 3 -1
BITMAP
020000
038000
07C000
0FE000
0FF800
07FC00
01FC00
007800
001000
000000
000000
FC0FC0
FC0FC0
FC0FC0
FC0FC0
FC0FC0
FC0FC0
FC0FC0
FC0FC0
FC0FC0
FC0FC0
FC0FC0
FC0FC0
FC0FC0
FC0FC0
FC0FC0
FC0FC0
FC0FC0
FE0FC0
7F0FC0
7FFFC0
7FFFC0
3FFFC0
1FFFC0
07FE00
ENDCHAR
STARTCHAR 00FA
ENCODING 250
SWIDTH 514 0
DWIDTH 25 0
BBX 18 35 3 -1
BITMAP
001000
003800
00F800
01FC00
07FC00
0FF800
0FE000
078000
020000
000000
000000
FC0FC0
FC0FC0
FC0FC0
FC0FC0
FC0FC0
FC0FC0
FC0FC0
FC0FC0
FC0FC0
FC0FC0
FC0FC0
FC0FC0
FC0FC0
FC0FC0
FC0FC0
FC0FC0
FC0FC0
FE0FC0
7F0FC0
7FFFC0
7FFFC0
3FFFC0
1FFFC0
07FE00
ENDCHAR
STARTCHAR 00FB
ENCODING 251
SWIDTH 514 0
DWIDTH 25 0
BBX 18 35 3 -1
BITMAP
004000
00E000
01F000
07F800
0FFC00
1FBE00
1F1F00
0E0E00
040400
000000
000000
FC0FC0
FC0FC0
FC0FC0
FC0FC0
FC0FC0
FC0FC0
FC0FC0
FC0FC0
FC0FC0
FC0FC0
FC0FC0
FC0FC0
FC0FC0
FC0FC0
FC0FC0
FC0FC0
FC0FC0
FE0FC0
7F0FC0
7FFFC0
7FFFC0
3FFFC0
1FFFC0
07FE00
ENDCHAR
STARTCHAR 00FC
ENCODING 252
SWIDTH 514 0
DWIDTH 25 0
BBX 18 35 3 -1
BITMAP
1C0F00
3E1F80
7F1F80
7F1FC0
7F1F80
3E1F80
1C0F00
000000
000000
000000
000000
FC0FC0
FC0FC0
FC0FC0
FC0FC0
FC0FC0
FC0FC0
FC0FC0
FC0FC0
FC0FC0
FC0FC0
FC0FC0
FC0FC0
FC0FC0
FC0FC0
FC0FC0
FC0FC0
FC0FC0
FE0FC0
7F0FC0
7FFFC0
7FFFC0
3FFFC0
1FFFC0
07FE00
ENDCHAR
STARTCHAR 00FD
ENCODING 253
SWIDTH 514 0
DWIDTH 25 0
BBX 22 43 1 -9
BITMAP
000400
000E00
003E00
007F00
01FF00
03FE00
03F800
01E000
008000
000000
000000
7E00FC
7E00FC
7F01F8
3F01F8
3F01F8
3F81F8
1F83F0
1F83F0
1F83F0
0FC3F0
0FC7E0
0FC7E0
07E7E0
07E7C0
07FFC0
03FFC0
03FF80
01FF80
01FF80
01FF00
00FF00
00FE00
007E00
007E00
00FC00
00FC00
43F800
7FF800
7FF000
FFE000
FFC000
7F0000
ENDCHAR
STARTCHAR 00FE
ENCODING 254
SWIDTH 514 0
DWIDTH 25 0
BBX 20 43 3 -8
BITMAP
1C0000
FC0000
FC0000
FC0000
FC0000
FC0000
FC0000
FC0000
FC0000
FC0000
FC0000
FFF800
FFFE00
FFFF00
FFFF80
FFFFC0
FC1FE0
FC0FE0
FC07E0
FC07F0
FC03F0
FC03F0
FC03F0
FC03F0
FC03F0
FC03F0
FC03F0
FC07F0
FC07E0
FC07E0
FE0FE0
FFFFC0
FFFFC0
FFFF80
FFFF00
FCFC00
FC0000
FC0000
FC0000
FC0000
FC0000
FC0000
FC0000
ENDCHAR
STARTCHAR 00FF
ENCODING 255
SWIDTH 514 0
DWIDTH 25 0
BBX 22 43 1 -9
BITMAP
0703C0
0F87E0
1FC7E0
1FC7F0
1FC7E0
0F87E0
0703C0
000000
000000
000000
000000
7E00FC
7E00FC
7F01F8
3F01F8
3F01F8
3F81F8
1F83F0
1F83F0
1F83F0
0FC3F0
0FC7E0
0FC7E0
07E7E0
07E7C0
07FFC0
03FFC0
03FF80
01FF80
01FF80
01FF00
00FF00
00FE00
007E00
007E00
00FC00
00FC00
43F800
7FF800
7FF000
FFE000
FFC000
7F0000
ENDCHAR
STARTCHAR 0152
ENCODING 140
SWIDTH 514 0
DWIDTH 25 0
BBX 23 31 1 -1
BITMAP
01FFFC
07FFFC
1FFFFC
1FFFFC
3FFFFC
7F1F80
7E1F80
7C1F80
7C1F80
FC1F80
FC1F80
FC1F80
FC1FF8
FC1FF8
FC1FF8
FC1FF8
FC1FF8
FC1F80
FC1F80
FC1F80
FC1F80
FC1F80
7C1F80
7C1F80
7E1F80
7F1FFE
3FFFFE
1FFFFE
1FFFFE
07FFFE
01F000
ENDCHAR
STARTCHAR 0153
ENCODING 156
SWIDTH 514 0
DWIDTH 25 0
BBX 23 25 1 -1
BITMAP
0783E0
1FE7F0
3FEFF8
3FFFFC
7FFFFC
7CFE7C
787E3E
F87C3E
F87C3E
F87C3E
F87FFE
F87FFE
F87FFE
F87FFE
F87C00
F87C00
F87C00
F87E00
787E00
7CFF08
7FFFFC
3FFFFC
3FFFFC
1FE7FC
0781F8
ENDCHAR
STARTCHAR 0160
ENCODING 138
SWIDTH 514 0
DWIDTH 25 0
BBX 21 42 2 -1
BITMAP
040200
070700
0F8F80
0FDF00
07FE00
03FC00
01F800
007000
002000
000000
01FE00
0FFFC0
1FFFE0
3FFFE0
7FFFC0
7F03C0
7E0040
FE0000
FC0000
FE0000
FE0000
7F0000
7FC000
3FF800
3FFE00
1FFF80
07FFC0
01FFE0
003FF0
000FF0
0007F0
0003F0
0003F8
0003F8
0003F0
2003F0
780FF0
7FFFF0
FFFFE0
FFFFC0
7FFF00
0FFC00
ENDCHAR
STARTCHAR 0161
ENCODING 154
SWIDTH 514 0
DWIDTH 25 0
BBX 19 35 3 -1
BITMAP
080400
0E0E00
1F1F00
1FBE00
0FFC00
07F800
03F000
00E000
004000
000000
03FE00
0FFFC0
3FFF80
7FFF80
7FFF80
FE0380
FC0000
FC0000
FE0000
FF8000
7FF000
3FFC00
1FFF00
0FFF80
03FFC0
007FC0
000FE0
0007E0
4007E0
F80FC0
FFFFC0
FFFFC0
FFFF80
7FFE00
0FF800
ENDCHAR
STARTCHAR 0178
ENCODING 159
SWIDTH 514 0
DWIDTH 25 0
BBX 23 41 1 0
BITMAP
0703C0
0F87E0
1FC7E0
1FC7F0
1FC7E0
0F87E0
0703C0
000000
000000
000000
000000
FC00FE
FE00FC
7E00FC
7E01FC
7F01F8
3F01F8
3F03F0
1F83F0
1F83E0
0FC7E0
0FC7E0
0FCFC0
07EFC0
07EF80
03FF80
01FF00
01FE00
00FE00
00FC00
00FC00
00FC00
00FC00
00FC00
00FC00
00FC00
00FC00
00FC00
00FC00
00FC00
00FC00
ENDCHAR
STARTCHAR 017D
ENCODING 142
SWIDTH 514 0
DWIDTH 25 0
BBX 20 41 2 0
BITMAP
040200
070700
0F8F80
0FDF00
07FE00
03FC00
01F800
007000
002000
000000
000000
7FFFF0
7FFFF0
7FFFF0
7FFFF0
7FFFF0
000FE0
000FC0
001FC0
003F80
003F00
007F00
007E00
00FC00
01FC00
01F800
03F800
03F000
07E000
07E000
0FC000
1FC000
1F8000
3F8000
3F0000
7E0000
7FFFF0
FFFFF0
FFFFF0
FFFFF0
FFFFF0
ENDCHAR
STARTCHAR 017E
ENCODING 158
SWIDTH 514 0
DWIDTH 25 0
BBX 18 34 3 0
BITMAP
080400
0E0E00
1F1F00
1FBE00
0FFC00
07F800
03F000
00E000
004000
000000
000000
7FFFC0
7FFFC0
7FFFC0
7FFFC0
7FFF80
003F80
007F00
00FE00
00FC00
01FC00
03F800
07F000
07E000
0FE000
1FC000
1F8000
3F8000
7F0000
7FFFC0
FFFFC0
FFFFC0
FFFFC0
FFFFC0
ENDCHAR
STARTCHAR 0192
ENCODING 131
SWIDTH 514 0
DWIDTH 25 0
BBX 24 44 0 -9
BITMAP
0007F8
001FFF
007FFF
00FFFF
00FFFE
01FE06
01FC00
01F800
01F800
01F800
01F800
3FFFFC
3FFFFC
3FFFFC
3FFFFC
3FFFFC
01F800
01F800
01F800
01F800
01F800
01F800
01F800
01F800
01F800
01F800
01F800
01F800
01F800
01F800
01F800
01F800
01F800
01F800
01F800
01F800
01F800
03F800
07F000
7FF000
7FE000
7FC000
FF8000
FE0000
ENDCHAR
STARTCHAR 02C6
ENCODING 136
SWIDTH 514 0
DWIDTH 25 0
BBX 13 9 6 25
BITMAP
0200
0700
0F80
3FC0
7FE0
FDF0
F8F8
7070
2020
ENDCHAR
STARTCHAR 02DC
ENCODING 152
SWIDTH 514 0
DWIDTH 25 0
BBX 15 7 5 26
BITMAP
1C08
7F1C
7FFE
FFFE
FFFC
E3F8
20F0
ENDCHAR
STARTCHAR 2013
ENCODING 150
SWIDTH 514 0
DWIDTH 25 0
BBX 19 5 3 10
BITMAP
FFFFE0
FFFFE0
FFFFE0
FFFFE0
FFFFE0
ENDCHAR
STARTCHAR 2014
ENCODING 151
SWIDTH 514 0
DWIDTH 25 0
BBX 25 5 0 10
BITMAP
FFFFFF80
FFFFFF80
FFFFFF80
FFFFFF80
FFFFFF80
ENDCHAR
STARTCHAR 2018
ENCODING 145
SWIDTH 514 0
DWIDTH 25 0
BBX 11 16 7 19
BITMAP
00C0
07C0
0FE0
1FE0
3F80
7C00
7800
7C00
FF00
FF00
FF80
FF80
FF80
7F00
7F00
3E00
ENDCHAR
STARTCHAR 2019
ENCODING 146
SWIDTH 514 0
DWIDTH 25 0
BBX 11 16 7 20
BITMAP
0F80
1FC0
3FC0
3FE0
3FE0
3FE0
1FE0
1FE0
07C0
03C0
07C0
3F80
FF00
FE00
7C00
6000
ENDCHAR
STARTCHAR 201A
ENCODING 130
SWIDTH 514 0
DWIDTH 25 0
BBX 11 16 6 -9
BITMAP
0F80
1FC0
1FC0
3FE0
3FE0
3FE0
1FE0
1FE0
07E0
03C0
07C0
1F80
FF00
FE00
7C00
6000
ENDCHAR
STARTCHAR 201C
ENCODING 147
SWIDTH 514 0
DWIDTH 25 0
BBX 21 14 2 20
BITMAP
018038
07C0F8
1FC1F8
3FC3F8
3C07C0
780700
700F00
FC0FC0
FE0FC0
FE0FE0
FE0FE0
FE0FE0
7E0FC0
3C0780
ENDCHAR
STARTCHAR 201D
ENCODING 148
SWIDTH 514 0
DWIDTH 25 0
BBX 21 13 2 22
BITMAP
0F01E0
1F83F0
3F83F8
3F83F8
3F83F8
1F83F8
0F80F8
0780F0
0F01F0
7E07E0
FC1FC0
F81F80
E00E00
ENDCHAR
STARTCHAR 201E
ENCODING 132
SWIDTH 514 0
DWIDTH 25 0
BBX 21 13 1 -9
BITMAP
0F01F0
1F83F0
3F83F8
3FC3F8
3FC3F8
1F83F8
0F80F8
078070
0F00F0
3F07E0
FE1FC0
F80F80
E00E00
ENDCHAR
STARTCHAR 2020
ENCODING 134
SWIDTH 514 0
DWIDTH 25 0
BBX 19 36 3 -6
BITMAP
01F000
01F000
01F000
01F000
01F000
01F000
01F000
01F000
01F000
FFFFE0
FFFFE0
FFFFE0
FFFFE0
FFFFE0
01F000
01F000
01F000
01F000
01F000
01F000
01F000
01F000
01F000
01F000
01F000
01F000
01F000
01F000
01F000
01F000
01F000
01F000
01F000
01E000
01E000
01E000
ENDCHAR
STARTCHAR 2021
ENCODING 135
SWIDTH 514 0
DWIDTH 25 0
BBX 18 36 3 -6
BITMAP
03F000
03F000
03F000
03F000
03F000
03F000
03F000
03F000
03F000
FFFFC0
FFFFC0
FFFFC0
FFFFC0
FFFFC0
03F000
03F000
03F000
03F000
03F000
03F000
03F000
FFFFC0
FFFFC0
FFFFC0
FFFFC0
FFFFC0
03F000
03F000
03F000
01F000
01F000
01E000
01E000
01E000
01E000
01E000
ENDCHAR
STARTCHAR 2022
ENCODING 149
SWIDTH 514 0
DWIDTH 25 0
BBX 13 14 6 10
BITMAP
0F80
3FE0
7FE0
FFF0
FFF0
FFF8
FFF8
FFF8
FFF8
FFF8
FFF0
7FE0
3FC0
0F80
ENDCHAR
STARTCHAR 2026
ENCODING 133
SWIDTH 514 0
DWIDTH 25 0
BBX 22 5 1 -1
BITMAP
783838
7C7C7C
FC7C7C
7C7C7C
783838
ENDCHAR
STARTCHAR 2030
ENCODING 137
SWIDTH 514 0
DWIDTH 25 0
BBX 23 32 1 -1
BITMAP
3C0000
7F0000
FF0000
E78000
E78000
E38000
E38004
E3801E
E3807E
E780F8
FF03E0
7F0F80
3E3E00
00F800
03E000
0F8000
3E0000
F80000
E7C0F0
0FE1F8
0FE3FC
1EF39C
1C739E
1C738E
1C738E
1C738E
1C738E
1C739E
1EF39C
0FE3FC
0FE1FC
07C0F0
ENDCHAR
STARTCHAR 2039
ENCODING 139
SWIDTH 514 0
DWIDTH 25 0
BBX 12 22 7 2
BITMAP
0300
03C0
07F0
0FE0
0FE0
1FC0
3FC0
3F80
7F00
FF00
FE00
FE00
FF00
7F00
3F80
3FC0
1FC0
0FE0
0FE0
07F0
03C0
0300
ENDCHAR
STARTCHAR 203A
ENCODING 155
SWIDTH 514 0
DWIDTH 25 0
BBX 12 23 8 2
BITMAP
0800
3800
FC00
FE00
7E00
7F00
3F80
3F80
1FC0
1FC0
0FE0
0FF0
0FE0
1FE0
1FC0
3F80
3F80
7F00
7E00
FE00
FC00
3C00
0800
ENDCHAR
STARTCHAR 20AC
ENCODING 128
SWIDTH 514 0
DWIDTH 25 0
BBX 21 31 2 -1
BITMAP
001FE0
00FFF8
01FFF0
03FFF0
07FFF0
07F030
0FE000
0FC000
1FC000
1F8000
FFFFC0
FFFFC0
FFFFC0
FFFF80
3F8000
3F0000
3F8000
FFFF80
FFFF00
FFFF00
FFFF00
1F8000
1FC000
1FC000
0FE000
0FF010
07FFF8
03FFF8
01FFF8
00FFF8
003FC0
ENDCHAR
STARTCHAR 2122
ENCODING 153
SWIDTH 514 0
DWIDTH 25 0
BBX 22 13 1 17
BITMAP
FF9C38
FF9C38
FF9E38
1C1E7C
1C1E7C
1C3BFC
1C3BDC
1C3BDC
1C3BDC
1C399C
1C381C
1C381C
1C381C
ENDCHAR
ENDFONT
